
<svg width="512" height="256" viewBox="0 0 512 256" xmlns="http://www.w3.org/2000/svg" fill="none">
  <rect width="100%" height="100%" fill="#0f0f0f"/>

  <!-- Left brain structure -->
  <path d="M80,80 C60,60 60,100 80,100 C60,100 60,140 80,140 C60,140 60,180 80,180" 
        stroke="#00ffff" stroke-width="6" fill="none" stroke-linecap="round"/>
  <path d="M100,80 C90,90 90,100 100,110" stroke="#00ffff" stroke-width="6" fill="none" stroke-linecap="round"/>
  <path d="M100,140 C90,150 90,160 100,170" stroke="#00ffff" stroke-width="6" fill="none" stroke-linecap="round"/>

  <!-- Center code tag -->
  <text x="125" y="145" font-family="JetBrains Mono, monospace" font-size="36" fill="#00ffff">&lt;U/&gt;</text>

  <!-- Circuit lines -->
  <line x1="190" y1="110" x2="230" y2="90" stroke="#00ffff" stroke-width="6" stroke-linecap="round"/>
  <circle cx="230" cy="90" r="6" fill="#00ffff"/>

  <line x1="190" y1="130" x2="230" y2="130" stroke="#00ffff" stroke-width="6" stroke-linecap="round"/>
  <circle cx="230" cy="130" r="6" fill="#00ffff"/>

  <line x1="190" y1="150" x2="230" y2="170" stroke="#00ffff" stroke-width="6" stroke-linecap="round"/>
  <circle cx="230" cy="170" r="6" fill="#00ffff"/>

  <!-- Name -->
  <text x="260" y="120" font-family="IBM Plex Sans, sans-serif" font-size="28" fill="#00ffff" font-weight="bold">Uğur</text>
  <text x="260" y="150" font-family="IBM Plex Sans, sans-serif" font-size="28" fill="#00ffff" font-weight="bold">Emin</text>
  <text x="260" y="180" font-family="IBM Plex Sans, sans-serif" font-size="28" fill="#00ffff" font-weight="bold">Baynal</text>
</svg>
