<svg width="888" height="885" viewBox="0 0 888 885" fill="none" xmlns="http://www.w3.org/2000/svg">
<path fill-rule="evenodd" clip-rule="evenodd" d="M357.159 0.00078201C357.187 0.00104869 357.214 0.000490654 357.238 0.00078201C357.25 0.000931855 357.261 0.00161302 357.272 0.00175857C357.277 0.00182839 357.285 0.0017211 357.288 0.00175857C357.295 0.00459339 357.298 0.230659 357.017 18.8768L357.302 0.00175857C357.677 0.00741942 358.052 0.0238924 358.425 0.0505867C382.859 1.79589 433.369 13.7109 463.697 64.7889C466.402 69.3449 469.458 77.7619 471.204 82.6629C472.255 85.613 473.202 88.3819 473.884 90.4051C474.226 91.4199 474.505 92.2554 474.7 92.8416C474.797 93.1345 474.872 93.3662 474.925 93.5271C474.952 93.6076 474.972 93.6713 474.987 93.7156C474.994 93.7375 475 93.7547 475.004 93.7674C475.006 93.7736 475.008 93.7791 475.009 93.783C475.01 93.7849 475.011 93.7866 475.011 93.7879V93.7898C474.997 93.7951 474.493 93.9609 456.521 99.8299L475.012 93.7908C475.649 95.7411 475.982 97.7783 475.999 99.8299L477.499 276.33C477.593 287.375 468.715 296.405 457.67 296.499C446.625 296.593 437.594 287.715 437.5 276.67L436.027 103.323C436.012 103.279 435.997 103.234 435.982 103.188C435.347 101.305 434.476 98.7613 433.523 96.0867C432.561 93.3871 431.561 90.6816 430.664 88.4344C429.744 86.1316 429.279 85.1999 429.275 85.1678L429.303 85.2107C408.611 50.3603 374.141 41.4561 356.336 40.0076C356.211 40.0105 356.063 40.0125 355.891 40.0184C355.08 40.0459 353.764 40.1123 352.029 40.2703C348.547 40.5876 343.452 41.2679 337.41 42.7195C325.249 45.6412 309.853 51.534 295.883 63.2977C287.609 70.2652 283.332 75.4179 280.286 80.4383C277.126 85.6457 274.779 91.492 271.194 101.254C270.063 106.072 269.294 108.633 268.228 113.64C267.228 118.337 266.9 121.398 266.978 123.059C267.934 143.366 270.407 153.973 273.6 160.965C276.618 167.573 280.988 172.592 289.915 180.667C294.84 185.121 303.461 190.265 312.109 194.691C316.196 196.783 319.898 198.52 322.572 199.729C323.903 200.332 324.968 200.798 325.681 201.106C326.037 201.26 326.306 201.375 326.475 201.447C326.559 201.483 326.619 201.508 326.653 201.522C326.662 201.526 326.669 201.529 326.674 201.531L326.677 201.532C326.678 201.532 326.679 201.533 326.68 201.533L326.679 201.532C326.68 201.533 326.682 201.533 326.683 201.534L326.684 201.535C336.878 205.777 341.706 217.478 337.469 227.675C333.231 237.875 321.526 242.707 311.326 238.469L319 220C311.58 237.857 311.332 238.448 311.322 238.467C311.321 238.466 311.318 238.465 311.317 238.465C311.314 238.463 311.309 238.462 311.305 238.461C311.297 238.457 311.287 238.453 311.275 238.448C311.251 238.438 311.22 238.425 311.183 238.409C311.108 238.378 311.006 238.335 310.878 238.281C310.623 238.173 310.265 238.02 309.815 237.825C308.915 237.436 307.641 236.878 306.081 236.173C302.972 234.766 298.672 232.749 293.883 230.298C284.779 225.638 272.149 218.531 263.084 210.333C253.099 201.302 243.719 191.822 237.215 177.582C230.887 163.725 228.066 147.134 227.022 124.94C226.861 121.528 227.079 118.07 227.476 114.798C225.76 114.932 223.971 115.111 222.122 115.344C205.955 117.378 185.89 123.391 168.244 138.986C146.155 158.506 138.354 181.156 135.956 199.194C134.747 208.293 134.934 216.159 135.412 221.67C135.649 224.411 135.956 226.528 136.182 227.873C136.295 228.544 136.388 229.018 136.441 229.277C136.467 229.406 136.484 229.482 136.488 229.501C136.49 229.509 136.488 229.506 136.484 229.489L136.557 229.814C138.416 238.49 134.329 247.378 126.489 251.604C126.483 251.608 126.476 251.612 126.467 251.617C126.415 251.646 126.315 251.701 126.172 251.781C125.885 251.941 125.424 252.203 124.81 252.56C123.58 253.276 121.75 254.371 119.499 255.808C114.971 258.701 108.876 262.89 102.584 268.067C89.1741 279.104 78.3247 291.84 75.4331 303.727C67.3557 336.934 67.7618 356.431 69.3706 366.636C70.1692 371.701 71.2621 374.469 71.7573 375.539C71.8373 375.712 71.9044 375.844 71.9536 375.938C77.4204 383.159 77.3744 393.258 71.6489 400.453L71.6498 400.454C71.6352 400.473 71.6126 400.502 71.5825 400.541C71.4917 400.658 71.3318 400.865 71.1108 401.159C70.6679 401.748 69.9793 402.681 69.102 403.928C67.3441 406.425 64.8463 410.153 62.0502 414.867C56.4107 424.375 49.8017 437.485 45.4545 452.313C36.8858 481.542 37.3308 515.238 69.393 544.146C93.4874 565.871 122.11 567.438 146.986 562.507C159.383 560.049 170.251 556.053 178.05 552.635C181.923 550.937 184.968 549.414 186.985 548.35C187.992 547.819 188.737 547.405 189.196 547.145C189.425 547.016 189.583 546.925 189.665 546.877C189.682 546.867 189.695 546.857 189.706 546.851C199.163 541.173 211.437 544.227 217.131 553.679C222.831 563.141 219.782 575.432 210.321 581.132L200 564C210.192 580.917 210.312 581.133 210.306 581.14C210.303 581.142 210.295 581.147 210.29 581.15C210.278 581.157 210.265 581.165 210.25 581.174C210.222 581.191 210.188 581.21 210.15 581.233C210.072 581.279 209.974 581.337 209.856 581.406C209.62 581.544 209.304 581.727 208.911 581.95C208.124 582.396 207.026 583.003 205.644 583.731C202.884 585.187 198.968 587.141 194.107 589.271C184.438 593.509 170.742 598.576 154.764 601.743C131.164 606.421 101.258 607.124 72.3413 593.667C72.1827 596.432 72.0546 599.306 71.9711 602.257C71.3086 625.68 73.6042 649.737 81.5864 664.474C88.0653 676.436 101.071 688.854 114.154 699.003C120.431 703.872 126.239 707.851 130.466 710.603C132.572 711.975 134.267 713.029 135.407 713.724C135.976 714.071 136.405 714.328 136.676 714.489C136.812 714.569 136.908 714.625 136.962 714.657C136.977 714.666 136.989 714.673 136.998 714.678L137.012 714.686C142.294 717.741 145.893 723.04 146.785 729.077C146.784 729.075 146.785 729.072 146.785 729.07L146.788 729.089C146.796 729.143 146.813 729.252 146.839 729.409C146.891 729.725 146.979 730.239 147.107 730.927C147.362 732.305 147.774 734.366 148.371 736.916C149.574 742.058 151.481 748.972 154.284 756.19C160.379 771.887 168.613 783.604 177.949 787.647C189.433 792.621 198.975 795.274 206.232 796.679C195.811 768.301 192.789 732.919 206.49 699.428C220.875 664.264 251.127 647.649 274.982 639.862C287.073 635.915 298.246 633.971 306.371 633.001C310.458 632.513 313.841 632.262 316.268 632.135C317.483 632.071 318.464 632.037 319.178 632.019C319.535 632.01 319.827 632.005 320.048 632.003C320.159 632.001 320.252 632.001 320.328 632.001C320.365 632.001 320.399 632 320.427 632H320.485C320.492 632.003 320.5 632.239 320.5 650.258V632C331.546 632 340.5 640.954 340.5 652C340.5 663.041 331.553 671.992 320.513 671.999L320.514 672H320.532C320.476 672 320.354 672.002 320.172 672.007C319.807 672.016 319.196 672.036 318.372 672.08C316.718 672.167 314.222 672.346 311.114 672.718C304.847 673.466 296.365 674.959 287.394 677.887C269.124 683.851 251.626 694.736 243.511 714.572C230.042 747.496 240.511 785.37 255.994 805.991C271.764 826.994 306.854 845 348 845C385.411 845 418.627 818.917 436 777.134V605C436.001 593.954 444.955 585 456 585C467.046 585 476 593.954 476 605V781C476 783.473 475.541 785.925 474.647 788.23C453.609 842.487 407.595 885 348 885C300.791 885 256.127 866.226 230.063 837.348C229.304 837.546 228.524 837.704 227.728 837.813L227.21 834.057C227.208 834.055 227.207 834.052 227.205 834.05C227.703 837.692 227.715 837.811 227.71 837.815C227.707 837.816 227.698 837.817 227.692 837.818C227.679 837.82 227.666 837.821 227.653 837.823C227.626 837.827 227.598 837.83 227.569 837.834C227.511 837.841 227.447 837.85 227.378 837.858C227.241 837.875 227.083 837.894 226.904 837.913C226.546 837.951 226.106 837.994 225.585 838.034C224.544 838.114 223.182 838.188 221.513 838.212C218.174 838.259 213.617 838.108 207.96 837.425C196.624 836.055 181.002 832.559 162.052 824.352C137.095 813.544 123.828 788.261 116.997 770.671C113.336 761.245 110.924 752.444 109.423 746.032C109.291 745.466 109.166 744.916 109.046 744.386C108.913 744.299 108.778 744.213 108.642 744.125C103.721 740.921 96.9765 736.303 89.6352 730.608C75.4804 719.627 56.9859 703.045 46.4135 683.525C33.0071 658.773 31.3031 625.33 31.9877 601.126C32.3459 588.465 33.4114 577.168 34.3842 569.039C34.5022 568.053 34.6185 567.111 34.7329 566.218C-4.54018 525.19 -3.52217 477.19 7.06977 441.06C12.6352 422.077 20.8959 405.843 27.6469 394.461C29.5451 391.26 31.3445 388.412 32.9575 385.959C31.7479 382.293 30.6618 377.957 29.8588 372.864C27.211 356.068 27.6175 331.065 36.5668 294.273C42.6753 269.161 62.3259 249.396 77.1655 237.182C83.859 231.674 90.2862 227.131 95.4477 223.733C94.8625 216.058 94.7346 205.743 96.3051 193.925C99.6615 168.669 110.86 136.317 141.756 109.013C167.109 86.6086 195.545 78.3719 217.128 75.6561C225.349 74.6217 232.691 74.371 238.674 74.4617C240.8 69.4214 243.172 64.4939 246.089 59.6863C251.918 50.0819 259.392 41.7342 270.118 32.702C290.115 15.8621 311.719 7.75427 328.066 3.82695C336.277 1.85418 343.314 0.897734 348.4 0.434376C350.949 0.202173 353.026 0.0920207 354.537 0.0408211C355.292 0.0152141 355.908 0.00472197 356.372 0.00078201C356.605 -0.00118696 356.799 -0.00171707 356.955 -0.00117112C357.032 -0.000896829 357.101 0.000240131 357.159 0.00078201ZM71.3461 375.177C71.3388 375.168 71.3321 375.158 71.3247 375.149C71.3051 375.126 71.2845 375.102 71.2641 375.078C71.2918 375.111 71.3187 375.144 71.3461 375.177ZM71.1645 374.96C71.151 374.944 71.1373 374.928 71.1235 374.912C71.0877 374.87 71.0503 374.828 71.0122 374.785C70.9932 374.763 70.9741 374.742 70.9545 374.72L70.9243 374.686C71.0052 374.777 71.0855 374.868 71.1645 374.96Z" fill="#00FFFF"/>
<path fill-rule="evenodd" clip-rule="evenodd" d="M557.022 592.283C565.426 585.116 578.049 586.118 585.217 594.521L614.217 628.521C617.304 632.141 619 636.743 619 641.5V748.221C639.993 755.797 655 775.895 655 799.5C655 829.599 630.6 854 600.5 854C570.401 854 546 829.599 546 799.5C546.001 777.034 559.594 757.743 579.004 749.403C579.002 749.269 579 749.134 579 749V648.87L554.784 620.478C547.616 612.074 548.618 599.451 557.022 592.283ZM601.181 778.68C589.583 778.681 580.181 788.083 580.181 799.68C580.181 811.278 589.583 820.68 601.181 820.68C612.779 820.68 622.181 811.278 622.181 799.68C622.181 788.083 612.779 778.681 601.181 778.68Z" fill="#00FFFF"/>
<path fill-rule="evenodd" clip-rule="evenodd" d="M625.013 567.204C632.908 559.479 645.572 559.617 653.296 567.512L715.414 631H747.5C749.224 631 750.897 631.218 752.493 631.628C761.343 613.493 779.963 601 801.5 601C831.6 601 856 625.4 856 655.5C856 685.599 831.6 710 801.5 710C776.759 710 755.868 693.513 749.214 670.926C748.649 670.974 748.078 671 747.5 671H707C701.621 671 696.467 668.833 692.705 664.987L624.705 595.487C616.98 587.592 617.118 574.929 625.013 567.204ZM802.181 634.68C790.583 634.681 781.181 644.083 781.181 655.68C781.181 667.278 790.583 676.68 802.181 676.68C813.779 676.68 823.181 667.278 823.181 655.68C823.181 644.083 813.779 634.681 802.181 634.68Z" fill="#00FFFF"/>
<path d="M495.737 356.431C497.431 345.517 507.652 338.043 518.567 339.736C529.482 341.43 536.957 351.651 535.263 362.566L515.5 359.5L535.263 362.57L535.259 362.594C535.257 362.608 535.254 362.628 535.25 362.653C535.243 362.703 535.232 362.773 535.217 362.864C535.189 363.046 535.147 363.31 535.092 363.65C534.983 364.331 534.822 365.323 534.612 366.592C534.191 369.129 533.572 372.781 532.767 377.29C531.158 386.299 528.8 398.777 525.799 412.662C519.913 439.902 511.17 474.431 500.171 498.354C491.996 516.136 475.279 533.144 449.299 530.928C425.914 528.932 406.286 511.871 404.077 486.752C403.891 484.64 403.917 482.486 403.941 481.346C403.955 480.673 403.976 480.087 403.994 479.665C403.996 479.614 403.998 479.564 404 479.517V364.5C404.001 353.454 412.955 344.5 424 344.5C435.046 344.5 444 353.454 444 364.5V480C444 480.373 443.99 480.746 443.969 481.118C443.969 481.121 443.968 481.125 443.968 481.129C443.966 481.171 443.963 481.247 443.958 481.35C443.95 481.562 443.938 481.861 443.931 482.195C443.917 482.848 443.928 483.207 443.928 483.276L443.923 483.248C444.279 487.292 446.916 490.578 452.701 491.072C455.138 491.28 456.603 490.721 457.934 489.756C459.593 488.553 461.783 486.095 463.829 481.645C472.829 462.068 480.838 431.347 486.702 404.213C489.576 390.91 491.843 378.92 493.39 370.257C494.163 365.93 494.754 362.445 495.15 360.055C495.348 358.86 495.497 357.938 495.595 357.324C495.644 357.017 495.681 356.786 495.705 356.637C495.716 356.562 495.725 356.508 495.73 356.473C495.733 356.456 495.735 356.444 495.736 356.437C495.736 356.434 495.737 356.432 495.737 356.431Z" fill="#00FFFF"/>
<path d="M339.811 385.919C347.864 378.359 360.521 378.758 368.081 386.811C375.641 394.864 375.242 407.521 367.189 415.081L332.525 447.622L368.311 487.06C375.734 495.24 375.12 507.889 366.94 515.311C358.76 522.734 346.111 522.119 338.689 513.939L289.689 459.939C282.355 451.857 282.855 439.388 290.811 431.919L339.811 385.919Z" fill="#00FFFF"/>
<path d="M551.428 381.788C559.277 374.017 571.941 374.079 579.712 381.929L629.712 432.429C637.246 440.038 637.45 452.231 630.175 460.088L580.175 514.088C572.671 522.193 560.016 522.679 551.912 515.175C543.807 507.67 543.321 495.017 550.825 486.912L587.814 446.963L551.288 410.071C543.516 402.222 543.579 389.559 551.428 381.788Z" fill="#00FFFF"/>
<path fill-rule="evenodd" clip-rule="evenodd" d="M833.5 387C863.6 387 888 411.401 888 441.5C888 471.599 863.6 496 833.5 496C811.002 496 791.688 482.367 783.368 462.912C782.753 462.969 782.13 463 781.5 463H685C673.955 463 665 454.046 665 443C665.001 431.954 673.955 423 685 423H781.5C781.74 423 781.978 423.005 782.215 423.013C789.787 402.013 809.891 387 833.5 387ZM834.181 420.68C822.583 420.681 813.181 430.083 813.181 441.68C813.181 453.278 822.583 462.68 834.181 462.68C845.779 462.68 855.181 453.278 855.181 441.68C855.181 430.083 845.779 420.681 834.181 420.68Z" fill="#00FFFF"/>
<path d="M168.053 325.879C173.919 316.519 186.262 313.688 195.622 319.554L185.791 335.238C195.622 319.554 195.628 319.558 195.635 319.562C195.638 319.564 195.645 319.568 195.65 319.571C195.66 319.578 195.671 319.585 195.683 319.593C195.707 319.607 195.733 319.624 195.762 319.642C195.821 319.68 195.891 319.724 195.972 319.776C196.134 319.88 196.339 320.014 196.584 320.178C197.076 320.504 197.732 320.95 198.524 321.511C200.104 322.63 202.248 324.224 204.73 326.266C209.646 330.311 216.146 336.324 222.24 344.127C234.37 359.659 246.382 384.506 237.129 414.836C226.297 450.341 204.849 468.16 184.651 476.205C174.958 480.066 166.052 481.492 159.537 481.964C156.258 482.201 153.515 482.201 151.488 482.131C150.472 482.095 149.627 482.042 148.977 481.99C148.652 481.964 148.374 481.938 148.147 481.915C148.033 481.903 147.931 481.893 147.843 481.884C147.799 481.879 147.758 481.874 147.72 481.87C147.701 481.868 147.684 481.865 147.666 481.863C147.658 481.862 147.645 481.861 147.641 481.86C147.629 481.858 147.63 481.754 150 462L147.618 481.857C136.651 480.541 128.827 470.584 130.143 459.617C131.458 448.658 141.401 440.838 152.359 442.139C152.355 442.139 152.345 442.137 152.338 442.137C152.324 442.135 152.311 442.134 152.298 442.133C152.273 442.13 152.25 442.127 152.23 442.125C152.19 442.12 152.161 442.117 152.142 442.115C152.146 442.115 152.151 442.116 152.156 442.116C152.247 442.123 152.494 442.141 152.879 442.154C153.656 442.181 154.961 442.189 156.651 442.067C160.072 441.82 164.792 441.059 169.849 439.045C179.151 435.34 191.703 426.659 198.871 403.164C202.889 389.994 198.402 378.591 190.714 368.748C186.899 363.863 182.661 359.908 179.316 357.155C177.668 355.799 176.3 354.788 175.402 354.151C174.954 353.834 174.628 353.613 174.449 353.494L174.305 353.4C174.312 353.405 174.322 353.41 174.333 353.418C174.34 353.422 174.347 353.427 174.354 353.431C174.358 353.434 174.365 353.437 174.367 353.438C165.018 347.569 162.19 335.234 168.053 325.879Z" fill="#00FFFF"/>
<path fill-rule="evenodd" clip-rule="evenodd" d="M801.5 170C831.6 170 856 194.401 856 224.5C856 254.599 831.6 279 801.5 279C780.914 279 762.992 267.585 753.721 250.74C752.673 250.91 751.597 251 750.5 251H719.662L652.994 316.289C645.102 324.017 632.44 323.885 624.711 315.993C616.983 308.101 617.116 295.439 625.007 287.711L697.507 216.711L697.861 216.372C701.559 212.924 706.432 211 711.5 211H748.686C754.693 187.43 776.061 170 801.5 170ZM802.181 203.68C790.583 203.681 781.181 213.083 781.181 224.68C781.181 236.278 790.583 245.68 802.181 245.68C813.779 245.68 823.181 236.278 823.181 224.68C823.181 213.083 813.779 203.681 802.181 203.68Z" fill="#00FFFF"/>
<path fill-rule="evenodd" clip-rule="evenodd" d="M600.5 27.9998C630.6 28 655 52.4005 655 82.4998C655 105.916 640.231 125.882 619.5 133.595V248.5C619.5 253.509 617.62 258.335 614.233 262.025L586.233 292.525C578.763 300.662 566.112 301.203 557.975 293.733C549.838 286.263 549.297 273.611 556.767 265.474L579.5 240.711V132.806C559.826 124.584 546 105.157 546 82.4998C546.001 52.4004 570.401 27.9998 600.5 27.9998ZM601.181 61.6805C589.583 61.6806 580.181 71.0828 580.181 82.6805C580.181 94.2784 589.583 103.68 601.181 103.68C612.779 103.68 622.181 94.2783 622.181 82.6805C622.181 71.0829 612.779 61.6807 601.181 61.6805Z" fill="#00FFFF"/>
<path d="M126.506 251.596C126.504 251.598 126.5 251.599 126.497 251.601C126.495 251.602 126.491 251.605 126.49 251.605L126.489 251.604C126.501 251.597 126.509 251.594 126.511 251.594C126.511 251.594 126.509 251.595 126.506 251.596Z" fill="#00FFFF"/>
</svg>
