<?xml version="1.0" encoding="UTF-8"?>
<svg xmlns="http://www.w3.org/2000/svg" xmlns:xlink="http://www.w3.org/1999/xlink" width="3735.49" height="2543" viewBox="0 0 3735.49 2543">
<defs>
<clipPath id="clip-0">
<path clip-rule="nonzero" d="M 0 0 L 3735.488281 0 L 3735.488281 2543 L 0 2543 Z M 0 0 "/>
</clipPath>
<radialGradient id="radial-pattern-0" gradientUnits="userSpaceOnUse" cx="0" cy="0" fx="0" fy="0" r="2776.81" gradientTransform="matrix(1, 0, 0, 1, 1867.75, 1271.5)">
<stop offset="0" stop-color="rgb(100%, 100%, 100%)" stop-opacity="1"/>
<stop offset="0.0625" stop-color="rgb(99.871826%, 99.957275%, 99.990845%)" stop-opacity="1"/>
<stop offset="0.0898438" stop-color="rgb(99.674988%, 99.894714%, 99.978638%)" stop-opacity="1"/>
<stop offset="0.117188" stop-color="rgb(99.581909%, 99.842834%, 99.963379%)" stop-opacity="1"/>
<stop offset="0.128906" stop-color="rgb(99.371338%, 99.577332%, 99.746704%)" stop-opacity="1"/>
<stop offset="0.152344" stop-color="rgb(99.121094%, 99.319458%, 99.458313%)" stop-opacity="1"/>
<stop offset="0.164062" stop-color="rgb(98.925781%, 99.253845%, 99.36676%)" stop-opacity="1"/>
<stop offset="0.1875" stop-color="rgb(98.735046%, 99.134827%, 99.275208%)" stop-opacity="1"/>
<stop offset="0.210938" stop-color="rgb(98.526001%, 98.869324%, 98.982239%)" stop-opacity="1"/>
<stop offset="0.257812" stop-color="rgb(98.277283%, 98.553467%, 98.635864%)" stop-opacity="1"/>
<stop offset="0.277344" stop-color="rgb(98.066711%, 98.286438%, 98.342896%)" stop-opacity="1"/>
<stop offset="0.320312" stop-color="rgb(97.872925%, 98.043823%, 98.149109%)" stop-opacity="1"/>
<stop offset="0.339844" stop-color="rgb(97.662354%, 97.781372%, 97.926331%)" stop-opacity="1"/>
<stop offset="0.359375" stop-color="rgb(97.538757%, 97.621155%, 97.677612%)" stop-opacity="1"/>
<stop offset="0.378906" stop-color="rgb(97.373962%, 97.566223%, 97.598267%)" stop-opacity="1"/>
<stop offset="0.394531" stop-color="rgb(97.177124%, 97.503662%, 97.587585%)" stop-opacity="1"/>
<stop offset="0.410156" stop-color="rgb(96.97876%, 97.286987%, 97.506714%)" stop-opacity="1"/>
<stop offset="0.425781" stop-color="rgb(96.769714%, 97.024536%, 97.254944%)" stop-opacity="1"/>
<stop offset="0.441406" stop-color="rgb(96.582031%, 96.923828%, 97.036743%)" stop-opacity="1"/>
<stop offset="0.472656" stop-color="rgb(96.376038%, 96.717834%, 96.92688%)" stop-opacity="1"/>
<stop offset="0.503906" stop-color="rgb(96.224976%, 96.478271%, 96.740723%)" stop-opacity="1"/>
<stop offset="0.515625" stop-color="rgb(96.028137%, 96.359253%, 96.51947%)" stop-opacity="1"/>
<stop offset="0.542969" stop-color="rgb(95.915222%, 96.14563%, 96.334839%)" stop-opacity="1"/>
<stop offset="0.570312" stop-color="rgb(95.773315%, 95.909119%, 96.118164%)" stop-opacity="1"/>
<stop offset="0.582031" stop-color="rgb(95.574951%, 95.799255%, 95.898438%)" stop-opacity="1"/>
<stop offset="0.605469" stop-color="rgb(95.378113%, 95.541382%, 95.625305%)" stop-opacity="1"/>
<stop offset="0.628906" stop-color="rgb(95.172119%, 95.309448%, 95.353699%)" stop-opacity="1"/>
<stop offset="0.648438" stop-color="rgb(95.027161%, 95.198059%, 95.245361%)" stop-opacity="1"/>
<stop offset="0.65625" stop-color="rgb(94.821167%, 94.943237%, 95.045471%)" stop-opacity="1"/>
<stop offset="0.675781" stop-color="rgb(94.529724%, 94.721985%, 94.786072%)" stop-opacity="1"/>
<stop offset="0.695312" stop-color="rgb(94.326782%, 94.511414%, 94.631958%)" stop-opacity="1"/>
<stop offset="0.710938" stop-color="rgb(94.125366%, 94.258118%, 94.395447%)" stop-opacity="1"/>
<stop offset="0.726562" stop-color="rgb(93.786621%, 94.10553%, 94.174194%)" stop-opacity="1"/>
<stop offset="0.757812" stop-color="rgb(93.54248%, 93.942261%, 94.081116%)" stop-opacity="1"/>
<stop offset="0.769531" stop-color="rgb(93.437195%, 93.722534%, 93.952942%)" stop-opacity="1"/>
<stop offset="0.78125" stop-color="rgb(93.237305%, 93.557739%, 93.714905%)" stop-opacity="1"/>
<stop offset="0.808594" stop-color="rgb(92.947388%, 93.338013%, 93.499756%)" stop-opacity="1"/>
<stop offset="0.820312" stop-color="rgb(92.74292%, 93.084717%, 93.241882%)" stop-opacity="1"/>
<stop offset="0.839844" stop-color="rgb(92.674255%, 92.970276%, 93.014526%)" stop-opacity="1"/>
<stop offset="0.859375" stop-color="rgb(92.63916%, 92.774963%, 92.89093%)" stop-opacity="1"/>
<stop offset="0.875" stop-color="rgb(92.437744%, 92.546082%, 92.628479%)" stop-opacity="1"/>
<stop offset="0.90625" stop-color="rgb(92.150879%, 92.344666%, 92.303467%)" stop-opacity="1"/>
<stop offset="0.929688" stop-color="rgb(91.947937%, 92.094421%, 92.030334%)" stop-opacity="1"/>
<stop offset="0.945312" stop-color="rgb(91.802979%, 91.967773%, 91.90979%)" stop-opacity="1"/>
<stop offset="0.957031" stop-color="rgb(91.609192%, 91.90979%, 91.902161%)" stop-opacity="1"/>
<stop offset="0.976562" stop-color="rgb(91.419983%, 91.804504%, 91.825867%)" stop-opacity="1"/>
<stop offset="0.988281" stop-color="rgb(91.215515%, 91.552734%, 91.55426%)" stop-opacity="1"/>
<stop offset="1" stop-color="rgb(91.065979%, 91.368103%, 91.352844%)" stop-opacity="1"/>
</radialGradient>
<clipPath id="clip-1">
<path clip-rule="nonzero" d="M 1897 845 L 3735.488281 845 L 3735.488281 1670 L 1897 1670 Z M 1897 845 "/>
</clipPath>
<clipPath id="clip-2">
<path clip-rule="nonzero" d="M 3125 673 L 3735.488281 673 L 3735.488281 1423 L 3125 1423 Z M 3125 673 "/>
</clipPath>
<clipPath id="clip-3">
<path clip-rule="nonzero" d="M 3472 1380 L 3735.488281 1380 L 3735.488281 1708 L 3472 1708 Z M 3472 1380 "/>
</clipPath>
<clipPath id="clip-4">
<path clip-rule="nonzero" d="M 3467 628 L 3735.488281 628 L 3735.488281 957 L 3467 957 Z M 3467 628 "/>
</clipPath>
<clipPath id="clip-5">
<path clip-rule="nonzero" d="M 3198 1006 L 3735.488281 1006 L 3735.488281 1579 L 3198 1579 Z M 3198 1006 "/>
</clipPath>
</defs>
<g clip-path="url(#clip-0)">
<path fill-rule="nonzero" fill="url(#radial-pattern-0)" d="M 0 0 L 0 2543 L 3735.488281 2543 L 3735.488281 0 Z M 0 0 "/>
</g>
<path fill="none" stroke-width="45.5607" stroke-linecap="butt" stroke-linejoin="miter" stroke="rgb(45.344543%, 45.887756%, 46.455383%)" stroke-opacity="1" stroke-miterlimit="10" d="M 14274.101562 13511.484375 C 14223.515625 13460.898438 14141.484375 13460.898438 14090.898438 13511.484375 C 14040.3125 13562.109375 14040.3125 13644.101562 14090.898438 13694.6875 C 14141.484375 13745.3125 14223.515625 13745.3125 14274.101562 13694.6875 C 14324.6875 13644.101562 14324.6875 13562.109375 14274.101562 13511.484375 Z M 14274.101562 13511.484375 " transform="matrix(0.1, 0, 0, -0.1, 0, 2543)"/>
<path fill="none" stroke-width="45.5607" stroke-linecap="butt" stroke-linejoin="miter" stroke="rgb(45.344543%, 45.887756%, 46.455383%)" stroke-opacity="1" stroke-miterlimit="10" d="M 35300.898438 9129.804688 L 28961.71875 9129.804688 L 27935.3125 10156.210938 L 22134.609375 10156.210938 " transform="matrix(0.1, 0, 0, -0.1, 0, 2543)"/>
<path fill="none" stroke-width="45.5607" stroke-linecap="butt" stroke-linejoin="miter" stroke="rgb(45.344543%, 45.887756%, 46.455383%)" stroke-opacity="1" stroke-miterlimit="10" d="M 11686.71875 6857.695312 L 15089.609375 10260.507812 L 15089.609375 12085.507812 L 15991.484375 12987.382812 L 16793.085938 12987.382812 L 17373.515625 13567.8125 L 18647.1875 13567.8125 L 19969.6875 12245.3125 " transform="matrix(0.1, 0, 0, -0.1, 0, 2543)"/>
<path fill="none" stroke-width="45.5607" stroke-linecap="butt" stroke-linejoin="miter" stroke="rgb(45.344543%, 45.887756%, 46.455383%)" stroke-opacity="1" stroke-miterlimit="10" d="M 35786.914062 10118.203125 L 34356.601562 11548.515625 L 28970.507812 11548.515625 L 27695.585938 12823.398438 L 21941.09375 12823.398438 L 21244.414062 13520 L 20162.695312 13520 " transform="matrix(0.1, 0, 0, -0.1, 0, 2543)"/>
<path fill="none" stroke-width="45.5607" stroke-linecap="butt" stroke-linejoin="miter" stroke="rgb(45.344543%, 45.887756%, 46.455383%)" stroke-opacity="1" stroke-miterlimit="10" d="M 35300.898438 9820.117188 L 34138.007812 10983.007812 L 28751.796875 10983.007812 L 27476.914062 12257.890625 L 25468.007812 12257.890625 " transform="matrix(0.1, 0, 0, -0.1, 0, 2543)"/>
<path fill="none" stroke-width="45.5607" stroke-linecap="butt" stroke-linejoin="miter" stroke="rgb(45.344543%, 45.887756%, 46.455383%)" stroke-opacity="1" stroke-miterlimit="10" d="M 35974.609375 9523.085938 L 34239.609375 11258.085938 L 28853.398438 11258.085938 L 27578.59375 12532.890625 L 23681.09375 12532.890625 " transform="matrix(0.1, 0, 0, -0.1, 0, 2543)"/>
<path fill="none" stroke-width="45.5607" stroke-linecap="butt" stroke-linejoin="miter" stroke="rgb(45.344543%, 45.887756%, 46.455383%)" stroke-opacity="1" stroke-miterlimit="10" d="M 10530.390625 6857.695312 L 14112.890625 10440.117188 L 14112.890625 12598.515625 L 15326.71875 13812.304688 L 15326.71875 14940.78125 " transform="matrix(0.1, 0, 0, -0.1, 0, 2543)"/>
<path fill="none" stroke-width="45.5607" stroke-linecap="butt" stroke-linejoin="miter" stroke="rgb(45.344543%, 45.887756%, 46.455383%)" stroke-opacity="1" stroke-miterlimit="10" d="M 1165.429688 10599.609375 L 8740.507812 10599.609375 L 12571.40625 14430.390625 " transform="matrix(0.1, 0, 0, -0.1, 0, 2543)"/>
<path fill="none" stroke-width="45.5607" stroke-linecap="butt" stroke-linejoin="miter" stroke="rgb(45.344543%, 45.887756%, 46.455383%)" stroke-opacity="1" stroke-miterlimit="10" d="M 8376.992188 7781.015625 L 7053.320312 9104.6875 L 4971.015625 9104.6875 " transform="matrix(0.1, 0, 0, -0.1, 0, 2543)"/>
<path fill="none" stroke-width="45.5607" stroke-linecap="butt" stroke-linejoin="miter" stroke="rgb(45.344543%, 45.887756%, 46.455383%)" stroke-opacity="1" stroke-miterlimit="10" d="M 5688.125 9532.1875 L 9296.71875 9532.1875 L 12285 12520.507812 " transform="matrix(0.1, 0, 0, -0.1, 0, 2543)"/>
<path fill="none" stroke-width="45.5607" stroke-linecap="butt" stroke-linejoin="miter" stroke="rgb(45.344543%, 45.887756%, 46.455383%)" stroke-opacity="1" stroke-miterlimit="10" d="M 10763.203125 7916.484375 L 13551.992188 10705.3125 L 13551.992188 13218.203125 " transform="matrix(0.1, 0, 0, -0.1, 0, 2543)"/>
<path fill="none" stroke-width="45.5607" stroke-linecap="butt" stroke-linejoin="miter" stroke="rgb(45.344543%, 45.887756%, 46.455383%)" stroke-opacity="1" stroke-miterlimit="10" d="M 1370.15625 18670.703125 L 5892.890625 14148.007812 L 5892.890625 12795.898438 L 4640.976562 11544.101562 L 1370.15625 11544.101562 " transform="matrix(0.1, 0, 0, -0.1, 0, 2543)"/>
<path fill="none" stroke-width="45.5607" stroke-linecap="butt" stroke-linejoin="miter" stroke="rgb(45.344543%, 45.887756%, 46.455383%)" stroke-opacity="1" stroke-miterlimit="10" d="M 1165.429688 11176.601562 L 7263.671875 11176.601562 L 8755.078125 12668.007812 L 9987.539062 12668.007812 " transform="matrix(0.1, 0, 0, -0.1, 0, 2543)"/>
<path fill="none" stroke-width="45.5607" stroke-linecap="butt" stroke-linejoin="miter" stroke="rgb(45.344543%, 45.887756%, 46.455383%)" stroke-opacity="1" stroke-miterlimit="10" d="M 1481.835938 17274.804688 L 2761.210938 15995.507812 L 3343.046875 15995.507812 L 5271.796875 14066.71875 " transform="matrix(0.1, 0, 0, -0.1, 0, 2543)"/>
<path fill="none" stroke-width="45.5607" stroke-linecap="butt" stroke-linejoin="miter" stroke="rgb(45.344543%, 45.887756%, 46.455383%)" stroke-opacity="1" stroke-miterlimit="10" d="M 1165.429688 11922.304688 L 4478.359375 11922.304688 L 5295.9375 12739.882812 " transform="matrix(0.1, 0, 0, -0.1, 0, 2543)"/>
<path fill="none" stroke-width="45.5607" stroke-linecap="butt" stroke-linejoin="miter" stroke="rgb(45.344543%, 45.887756%, 46.455383%)" stroke-opacity="1" stroke-miterlimit="10" d="M 1119.257812 12664.101562 L 2342.734375 13887.5 L 3230.664062 13887.5 L 4068.59375 13049.609375 L 4068.59375 12518.398438 L 1481.835938 12518.398438 " transform="matrix(0.1, 0, 0, -0.1, 0, 2543)"/>
<path fill="none" stroke-width="45.5607" stroke-linecap="butt" stroke-linejoin="miter" stroke="rgb(45.344543%, 45.887756%, 46.455383%)" stroke-opacity="1" stroke-miterlimit="10" d="M 34282.382812 10125.3125 L 32746.015625 10125.3125 L 32375.703125 10495.585938 L 29496.992188 10495.585938 " transform="matrix(0.1, 0, 0, -0.1, 0, 2543)"/>
<path fill="none" stroke-width="45.5607" stroke-linecap="butt" stroke-linejoin="miter" stroke="rgb(45.344543%, 45.887756%, 46.455383%)" stroke-opacity="1" stroke-miterlimit="10" d="M 26500.78125 14390 L 29046.289062 14390 L 31384.6875 12051.484375 " transform="matrix(0.1, 0, 0, -0.1, 0, 2543)"/>
<path fill="none" stroke-width="45.5607" stroke-linecap="butt" stroke-linejoin="miter" stroke="rgb(45.344543%, 45.887756%, 46.455383%)" stroke-opacity="1" stroke-miterlimit="10" d="M 26121.40625 14066.71875 L 28822.890625 14066.71875 L 30797.617188 12091.992188 " transform="matrix(0.1, 0, 0, -0.1, 0, 2543)"/>
<path fill="none" stroke-width="45.5607" stroke-linecap="butt" stroke-linejoin="miter" stroke="rgb(45.344543%, 45.887756%, 46.455383%)" stroke-opacity="1" stroke-miterlimit="10" d="M 25835.703125 13729.21875 L 28633.59375 13729.21875 L 30212.1875 12150.585938 " transform="matrix(0.1, 0, 0, -0.1, 0, 2543)"/>
<path fill="none" stroke-width="45.5607" stroke-linecap="butt" stroke-linejoin="miter" stroke="rgb(45.344543%, 45.887756%, 46.455383%)" stroke-opacity="1" stroke-miterlimit="10" d="M 14752.1875 7781.015625 L 16792.109375 9820.898438 L 19861.210938 9820.898438 " transform="matrix(0.1, 0, 0, -0.1, 0, 2543)"/>
<path fill="none" stroke-width="45.5607" stroke-linecap="butt" stroke-linejoin="miter" stroke="rgb(45.344543%, 45.887756%, 46.455383%)" stroke-opacity="1" stroke-miterlimit="10" d="M 19960.3125 12261.601562 C 20010.898438 12312.1875 20092.890625 12312.1875 20143.515625 12261.601562 C 20194.101562 12211.09375 20194.101562 12128.984375 20143.515625 12078.515625 C 20092.890625 12027.890625 20010.898438 12027.890625 19960.3125 12078.515625 C 19909.804688 12128.984375 19909.804688 12211.09375 19960.3125 12261.601562 Z M 19960.3125 12261.601562 " transform="matrix(0.1, 0, 0, -0.1, 0, 2543)"/>
<path fill="none" stroke-width="45.5607" stroke-linecap="butt" stroke-linejoin="miter" stroke="rgb(45.344543%, 45.887756%, 46.455383%)" stroke-opacity="1" stroke-miterlimit="10" d="M 13462.304688 13446.484375 C 13512.890625 13497.109375 13594.882812 13497.109375 13645.507812 13446.484375 C 13696.09375 13395.898438 13696.09375 13313.90625 13645.507812 13263.28125 C 13594.882812 13212.695312 13512.890625 13212.695312 13462.304688 13263.28125 C 13411.71875 13313.90625 13411.71875 13395.898438 13462.304688 13446.484375 Z M 13462.304688 13446.484375 " transform="matrix(0.1, 0, 0, -0.1, 0, 2543)"/>
<path fill="none" stroke-width="45.5607" stroke-linecap="butt" stroke-linejoin="miter" stroke="rgb(45.344543%, 45.887756%, 46.455383%)" stroke-opacity="1" stroke-miterlimit="10" d="M 12273.789062 12711.914062 C 12324.414062 12762.5 12406.40625 12762.5 12456.992188 12711.914062 C 12507.617188 12661.40625 12507.617188 12579.296875 12456.992188 12528.789062 C 12406.40625 12478.203125 12324.414062 12478.203125 12273.789062 12528.789062 C 12223.203125 12579.296875 12223.203125 12661.40625 12273.789062 12711.914062 Z M 12273.789062 12711.914062 " transform="matrix(0.1, 0, 0, -0.1, 0, 2543)"/>
<path fill="none" stroke-width="45.5607" stroke-linecap="butt" stroke-linejoin="miter" stroke="rgb(45.344543%, 45.887756%, 46.455383%)" stroke-opacity="1" stroke-miterlimit="10" d="M 12578.515625 14636.289062 C 12629.101562 14686.914062 12711.09375 14686.914062 12761.71875 14636.289062 C 12812.304688 14585.703125 12812.304688 14503.710938 12761.71875 14453.085938 C 12711.09375 14402.617188 12629.101562 14402.617188 12578.515625 14453.085938 C 12528.007812 14503.710938 12528.007812 14585.703125 12578.515625 14636.289062 Z M 12578.515625 14636.289062 " transform="matrix(0.1, 0, 0, -0.1, 0, 2543)"/>
<path fill="none" stroke-width="45.5607" stroke-linecap="butt" stroke-linejoin="miter" stroke="rgb(45.344543%, 45.887756%, 46.455383%)" stroke-opacity="1" stroke-miterlimit="10" d="M 10045.195312 12762.382812 C 10095.78125 12813.007812 10177.8125 12813.007812 10228.398438 12762.382812 C 10278.984375 12711.914062 10278.984375 12629.804688 10228.398438 12579.296875 C 10177.8125 12528.710938 10095.78125 12528.710938 10045.195312 12579.296875 C 9994.648438 12629.804688 9994.648438 12711.914062 10045.195312 12762.382812 Z M 10045.195312 12762.382812 " transform="matrix(0.1, 0, 0, -0.1, 0, 2543)"/>
<path fill="none" stroke-width="45.5607" stroke-linecap="butt" stroke-linejoin="miter" stroke="rgb(45.344543%, 45.887756%, 46.455383%)" stroke-opacity="1" stroke-miterlimit="10" d="M 5300.390625 12926.015625 C 5350.976562 12976.484375 5433.007812 12976.484375 5483.59375 12926.015625 C 5534.179688 12875.390625 5534.179688 12793.398438 5483.59375 12742.8125 C 5433.007812 12692.1875 5350.976562 12692.1875 5300.390625 12742.8125 C 5249.84375 12793.398438 5249.84375 12875.390625 5300.390625 12926.015625 Z M 5300.390625 12926.015625 " transform="matrix(0.1, 0, 0, -0.1, 0, 2543)"/>
<path fill="none" stroke-width="45.5607" stroke-linecap="butt" stroke-linejoin="miter" stroke="rgb(45.344543%, 45.887756%, 46.455383%)" stroke-opacity="1" stroke-miterlimit="10" d="M 4748.945312 9208.203125 C 4799.53125 9258.789062 4881.523438 9258.789062 4932.109375 9208.203125 C 4982.695312 9157.617188 4982.695312 9075.585938 4932.109375 9025.117188 C 4881.523438 8974.492188 4799.53125 8974.492188 4748.945312 9025.117188 C 4698.359375 9075.585938 4698.359375 9157.617188 4748.945312 9208.203125 Z M 4748.945312 9208.203125 " transform="matrix(0.1, 0, 0, -0.1, 0, 2543)"/>
<path fill="none" stroke-width="45.5607" stroke-linecap="butt" stroke-linejoin="miter" stroke="rgb(45.344543%, 45.887756%, 46.455383%)" stroke-opacity="1" stroke-miterlimit="10" d="M 5476.015625 9625.117188 C 5526.601562 9675.703125 5608.632812 9675.703125 5659.21875 9625.117188 C 5709.765625 9574.492188 5709.765625 9492.5 5659.21875 9441.914062 C 5608.632812 9391.289062 5526.601562 9391.289062 5476.015625 9441.914062 C 5425.429688 9492.5 5425.429688 9574.492188 5476.015625 9625.117188 Z M 5476.015625 9625.117188 " transform="matrix(0.1, 0, 0, -0.1, 0, 2543)"/>
<path fill="none" stroke-width="45.5607" stroke-linecap="butt" stroke-linejoin="miter" stroke="rgb(45.344543%, 45.887756%, 46.455383%)" stroke-opacity="1" stroke-miterlimit="10" d="M 5274.882812 14068.515625 C 5325.46875 14119.101562 5407.5 14119.101562 5458.085938 14068.515625 C 5508.632812 14017.890625 5508.632812 13935.898438 5458.085938 13885.3125 C 5407.5 13834.6875 5325.46875 13834.6875 5274.882812 13885.3125 C 5224.296875 13935.898438 5224.296875 14017.890625 5274.882812 14068.515625 Z M 5274.882812 14068.515625 " transform="matrix(0.1, 0, 0, -0.1, 0, 2543)"/>
<path fill="none" stroke-width="45.5607" stroke-linecap="butt" stroke-linejoin="miter" stroke="rgb(45.344543%, 45.887756%, 46.455383%)" stroke-opacity="1" stroke-miterlimit="10" d="M 1317.460938 17453.984375 C 1368.046875 17504.609375 1450.039062 17504.609375 1500.625 17453.984375 C 1551.210938 17403.398438 1551.210938 17321.40625 1500.625 17270.78125 C 1450.039062 17220.3125 1368.046875 17220.3125 1317.460938 17270.78125 C 1266.875 17321.40625 1266.875 17403.398438 1317.460938 17453.984375 Z M 1317.460938 17453.984375 " transform="matrix(0.1, 0, 0, -0.1, 0, 2543)"/>
<path fill="none" stroke-width="45.5607" stroke-linecap="butt" stroke-linejoin="miter" stroke="rgb(45.344543%, 45.887756%, 46.455383%)" stroke-opacity="1" stroke-miterlimit="10" d="M 944.296875 12667.890625 C 994.882812 12718.515625 1076.914062 12718.515625 1127.460938 12667.890625 C 1178.046875 12617.304688 1178.046875 12535.3125 1127.460938 12484.6875 C 1076.914062 12434.101562 994.882812 12434.101562 944.296875 12484.6875 C 893.710938 12535.3125 893.710938 12617.304688 944.296875 12667.890625 Z M 944.296875 12667.890625 " transform="matrix(0.1, 0, 0, -0.1, 0, 2543)"/>
<path fill="none" stroke-width="45.5607" stroke-linecap="butt" stroke-linejoin="miter" stroke="rgb(45.344543%, 45.887756%, 46.455383%)" stroke-opacity="1" stroke-miterlimit="10" d="M 944.296875 12013.90625 C 994.882812 12064.414062 1076.914062 12064.414062 1127.460938 12013.90625 C 1178.046875 11963.28125 1178.046875 11881.289062 1127.460938 11830.703125 C 1076.914062 11780.117188 994.882812 11780.117188 944.296875 11830.703125 C 893.710938 11881.289062 893.710938 11963.28125 944.296875 12013.90625 Z M 944.296875 12013.90625 " transform="matrix(0.1, 0, 0, -0.1, 0, 2543)"/>
<path fill="none" stroke-width="45.5607" stroke-linecap="butt" stroke-linejoin="miter" stroke="rgb(45.344543%, 45.887756%, 46.455383%)" stroke-opacity="1" stroke-miterlimit="10" d="M 944.296875 11268.203125 C 994.882812 11318.789062 1076.914062 11318.789062 1127.460938 11268.203125 C 1178.046875 11217.617188 1178.046875 11135.585938 1127.460938 11085 C 1076.914062 11034.414062 994.882812 11034.414062 944.296875 11085 C 893.710938 11135.585938 893.710938 11217.617188 944.296875 11268.203125 Z M 944.296875 11268.203125 " transform="matrix(0.1, 0, 0, -0.1, 0, 2543)"/>
<path fill="none" stroke-width="45.5607" stroke-linecap="butt" stroke-linejoin="miter" stroke="rgb(45.344543%, 45.887756%, 46.455383%)" stroke-opacity="1" stroke-miterlimit="10" d="M 21910.117188 10241.09375 C 21960.703125 10291.71875 22042.695312 10291.71875 22093.28125 10241.09375 C 22143.90625 10190.507812 22143.90625 10108.515625 22093.28125 10057.890625 C 22042.695312 10007.304688 21960.703125 10007.304688 21910.117188 10057.890625 C 21859.609375 10108.515625 21859.609375 10190.507812 21910.117188 10241.09375 Z M 21910.117188 10241.09375 " transform="matrix(0.1, 0, 0, -0.1, 0, 2543)"/>
<path fill="none" stroke-width="45.5607" stroke-linecap="butt" stroke-linejoin="miter" stroke="rgb(45.344543%, 45.887756%, 46.455383%)" stroke-opacity="1" stroke-miterlimit="10" d="M 19889.882812 9911.289062 C 19940.507812 9961.914062 20022.5 9961.914062 20073.007812 9911.289062 C 20123.59375 9860.703125 20123.59375 9778.710938 20073.007812 9728.085938 C 20022.5 9677.5 19940.507812 9677.5 19889.882812 9728.085938 C 19839.296875 9778.710938 19839.296875 9860.703125 19889.882812 9911.289062 Z M 19889.882812 9911.289062 " transform="matrix(0.1, 0, 0, -0.1, 0, 2543)"/>
<path fill="none" stroke-width="45.5607" stroke-linecap="butt" stroke-linejoin="miter" stroke="rgb(45.344543%, 45.887756%, 46.455383%)" stroke-opacity="1" stroke-miterlimit="10" d="M 19931.289062 13609.804688 C 19981.914062 13660.3125 20063.90625 13660.3125 20114.492188 13609.804688 C 20165 13559.21875 20165 13477.1875 20114.492188 13426.601562 C 20063.90625 13376.015625 19981.914062 13376.015625 19931.289062 13426.601562 C 19880.703125 13477.1875 19880.703125 13559.21875 19931.289062 13609.804688 Z M 19931.289062 13609.804688 " transform="matrix(0.1, 0, 0, -0.1, 0, 2543)"/>
<path fill="none" stroke-width="45.5607" stroke-linecap="butt" stroke-linejoin="miter" stroke="rgb(45.344543%, 45.887756%, 46.455383%)" stroke-opacity="1" stroke-miterlimit="10" d="M 25247.890625 12347.8125 C 25298.398438 12398.398438 25380.390625 12398.398438 25431.015625 12347.8125 C 25481.601562 12297.1875 25481.601562 12215.195312 25431.015625 12164.609375 C 25380.390625 12113.984375 25298.398438 12113.984375 25247.890625 12164.609375 C 25197.304688 12215.195312 25197.304688 12297.1875 25247.890625 12347.8125 Z M 25247.890625 12347.8125 " transform="matrix(0.1, 0, 0, -0.1, 0, 2543)"/>
<path fill="none" stroke-width="45.5607" stroke-linecap="butt" stroke-linejoin="miter" stroke="rgb(45.344543%, 45.887756%, 46.455383%)" stroke-opacity="1" stroke-miterlimit="10" d="M 23438.398438 12617.382812 C 23488.984375 12668.007812 23571.015625 12668.007812 23621.601562 12617.382812 C 23672.109375 12566.914062 23672.109375 12484.804688 23621.601562 12434.296875 C 23571.015625 12383.710938 23488.984375 12383.710938 23438.398438 12434.296875 C 23387.8125 12484.804688 23387.8125 12566.914062 23438.398438 12617.382812 Z M 23438.398438 12617.382812 " transform="matrix(0.1, 0, 0, -0.1, 0, 2543)"/>
<path fill="none" stroke-width="45.5607" stroke-linecap="butt" stroke-linejoin="miter" stroke="rgb(45.344543%, 45.887756%, 46.455383%)" stroke-opacity="1" stroke-miterlimit="10" d="M 34317.617188 10209.804688 C 34368.203125 10260.390625 34450.195312 10260.390625 34500.703125 10209.804688 C 34551.289062 10159.21875 34551.289062 10077.1875 34500.703125 10026.601562 C 34450.195312 9976.015625 34368.203125 9976.015625 34317.617188 10026.601562 C 34266.992188 10077.1875 34266.992188 10159.21875 34317.617188 10209.804688 Z M 34317.617188 10209.804688 " transform="matrix(0.1, 0, 0, -0.1, 0, 2543)"/>
<path fill="none" stroke-width="45.5607" stroke-linecap="butt" stroke-linejoin="miter" stroke="rgb(45.344543%, 45.887756%, 46.455383%)" stroke-opacity="1" stroke-miterlimit="10" d="M 34824.804688 13230.78125 C 34875.3125 13281.40625 34957.304688 13281.40625 35007.890625 13230.78125 C 35058.515625 13180.195312 35058.515625 13098.203125 35007.890625 13047.617188 C 34957.304688 12997.109375 34875.3125 12997.109375 34824.804688 13047.617188 C 34774.21875 13098.203125 34774.21875 13180.195312 34824.804688 13230.78125 Z M 34824.804688 13230.78125 " transform="matrix(0.1, 0, 0, -0.1, 0, 2543)"/>
<path fill="none" stroke-width="45.5607" stroke-linecap="butt" stroke-linejoin="miter" stroke="rgb(45.344543%, 45.887756%, 46.455383%)" stroke-opacity="1" stroke-miterlimit="10" d="M 33646.601562 14383.90625 C 33697.109375 14434.492188 33779.21875 14434.492188 33829.6875 14383.90625 C 33880.3125 14333.398438 33880.3125 14251.289062 33829.6875 14200.78125 C 33779.21875 14150.195312 33697.109375 14150.195312 33646.601562 14200.78125 C 33596.015625 14251.289062 33596.015625 14333.398438 33646.601562 14383.90625 Z M 33646.601562 14383.90625 " transform="matrix(0.1, 0, 0, -0.1, 0, 2543)"/>
<path fill="none" stroke-width="45.5607" stroke-linecap="butt" stroke-linejoin="miter" stroke="rgb(45.344543%, 45.887756%, 46.455383%)" stroke-opacity="1" stroke-miterlimit="10" d="M 36012.5 12117.8125 C 36063.085938 12168.398438 36145.117188 12168.398438 36195.703125 12117.8125 C 36246.289062 12067.1875 36246.289062 11985.195312 36195.703125 11934.6875 C 36145.117188 11884.101562 36063.085938 11884.101562 36012.5 11934.6875 C 35961.992188 11985.195312 35961.992188 12067.1875 36012.5 12117.8125 Z M 36012.5 12117.8125 " transform="matrix(0.1, 0, 0, -0.1, 0, 2543)"/>
<path fill="none" stroke-width="45.5607" stroke-linecap="butt" stroke-linejoin="miter" stroke="rgb(45.344543%, 45.887756%, 46.455383%)" stroke-opacity="1" stroke-miterlimit="10" d="M 35971.796875 9527.109375 C 36022.304688 9577.617188 36104.296875 9577.617188 36154.882812 9527.109375 C 36205.507812 9476.484375 36205.507812 9394.492188 36154.882812 9343.90625 C 36104.296875 9293.28125 36022.304688 9293.28125 35971.71875 9343.90625 C 35921.210938 9394.492188 35921.210938 9476.484375 35971.796875 9527.109375 Z M 35971.796875 9527.109375 " transform="matrix(0.1, 0, 0, -0.1, 0, 2543)"/>
<path fill="none" stroke-width="45.5607" stroke-linecap="butt" stroke-linejoin="miter" stroke="rgb(45.344543%, 45.887756%, 46.455383%)" stroke-opacity="1" stroke-miterlimit="10" d="M 29280.3125 10587.695312 C 29330.898438 10638.28125 29412.890625 10638.28125 29463.515625 10587.695312 C 29513.984375 10537.109375 29513.984375 10455.117188 29463.515625 10404.609375 C 29412.890625 10353.984375 29330.898438 10353.984375 29280.3125 10404.609375 C 29229.6875 10455.117188 29229.6875 10537.109375 29280.3125 10587.695312 Z M 29280.3125 10587.695312 " transform="matrix(0.1, 0, 0, -0.1, 0, 2543)"/>
<path fill="none" stroke-width="45.5607" stroke-linecap="butt" stroke-linejoin="miter" stroke="rgb(45.344543%, 45.887756%, 46.455383%)" stroke-opacity="1" stroke-miterlimit="10" d="M 30215.898438 12156.601562 C 30266.484375 12207.1875 30348.515625 12207.1875 30399.101562 12156.601562 C 30449.6875 12106.015625 30449.6875 12023.984375 30399.101562 11973.398438 C 30348.515625 11922.8125 30266.484375 11922.8125 30215.898438 11973.398438 C 30165.3125 12023.984375 30165.3125 12106.015625 30215.898438 12156.601562 Z M 30215.898438 12156.601562 " transform="matrix(0.1, 0, 0, -0.1, 0, 2543)"/>
<path fill="none" stroke-width="45.5607" stroke-linecap="butt" stroke-linejoin="miter" stroke="rgb(45.344543%, 45.887756%, 46.455383%)" stroke-opacity="1" stroke-miterlimit="10" d="M 25619.882812 13823.984375 C 25670.507812 13874.609375 25752.5 13874.609375 25803.085938 13823.984375 C 25853.710938 13773.398438 25853.710938 13691.40625 25803.085938 13640.78125 C 25752.5 13590.3125 25670.507812 13590.3125 25619.882812 13640.78125 C 25569.414062 13691.40625 25569.414062 13773.398438 25619.882812 13823.984375 Z M 25619.882812 13823.984375 " transform="matrix(0.1, 0, 0, -0.1, 0, 2543)"/>
<path fill="none" stroke-width="45.5607" stroke-linecap="butt" stroke-linejoin="miter" stroke="rgb(45.344543%, 45.887756%, 46.455383%)" stroke-opacity="1" stroke-miterlimit="10" d="M 25899.101562 14158.984375 C 25949.6875 14209.609375 26031.71875 14209.609375 26082.304688 14158.984375 C 26132.890625 14108.398438 26132.890625 14026.40625 26082.304688 13975.898438 C 26031.71875 13925.3125 25949.6875 13925.3125 25899.101562 13975.898438 C 25848.515625 14026.40625 25848.515625 14108.398438 25899.101562 14158.984375 Z M 25899.101562 14158.984375 " transform="matrix(0.1, 0, 0, -0.1, 0, 2543)"/>
<path fill="none" stroke-width="45.5607" stroke-linecap="butt" stroke-linejoin="miter" stroke="rgb(45.344543%, 45.887756%, 46.455383%)" stroke-opacity="1" stroke-miterlimit="10" d="M 26283.007812 14487.109375 C 26333.59375 14537.617188 26415.585938 14537.695312 26466.210938 14487.109375 C 26516.71875 14436.484375 26516.71875 14354.492188 26466.210938 14303.90625 C 26415.585938 14253.28125 26333.59375 14253.28125 26283.007812 14303.90625 C 26232.382812 14354.492188 26232.382812 14436.484375 26283.007812 14487.109375 Z M 26283.007812 14487.109375 " transform="matrix(0.1, 0, 0, -0.1, 0, 2543)"/>
<path fill="none" stroke-width="45.5607" stroke-linecap="butt" stroke-linejoin="miter" stroke="rgb(45.344543%, 45.887756%, 46.455383%)" stroke-opacity="1" stroke-miterlimit="10" d="M 30787.109375 12094.609375 C 30837.695312 12145.117188 30919.6875 12145.117188 30970.3125 12094.609375 C 31020.898438 12043.984375 31020.898438 11961.992188 30970.3125 11911.40625 C 30919.6875 11860.78125 30837.695312 11860.78125 30787.109375 11911.40625 C 30736.484375 11961.992188 30736.484375 12043.984375 30787.109375 12094.609375 Z M 30787.109375 12094.609375 " transform="matrix(0.1, 0, 0, -0.1, 0, 2543)"/>
<path fill="none" stroke-width="45.5607" stroke-linecap="butt" stroke-linejoin="miter" stroke="rgb(45.344543%, 45.887756%, 46.455383%)" stroke-opacity="1" stroke-miterlimit="10" d="M 31389.6875 12026.992188 C 31440.195312 12077.617188 31522.304688 12077.617188 31572.8125 12026.992188 C 31623.398438 11976.484375 31623.398438 11894.492188 31572.8125 11843.90625 C 31522.304688 11793.28125 31440.195312 11793.28125 31389.6875 11843.90625 C 31339.101562 11894.492188 31339.101562 11976.484375 31389.6875 12026.992188 Z M 31389.6875 12026.992188 " transform="matrix(0.1, 0, 0, -0.1, 0, 2543)"/>
<path fill="none" stroke-width="45.5607" stroke-linecap="butt" stroke-linejoin="miter" stroke="rgb(45.344543%, 45.887756%, 46.455383%)" stroke-opacity="1" stroke-miterlimit="10" d="M 15229.804688 15170.195312 C 15280.390625 15220.78125 15362.382812 15220.78125 15412.890625 15170.195312 C 15463.515625 15119.609375 15463.515625 15037.617188 15412.890625 14986.992188 C 15362.382812 14936.40625 15280.390625 14936.40625 15229.804688 14986.992188 C 15179.21875 15037.617188 15179.21875 15119.609375 15229.804688 15170.195312 Z M 15229.804688 15170.195312 " transform="matrix(0.1, 0, 0, -0.1, 0, 2543)"/>
<path fill-rule="nonzero" fill="rgb(45.344543%, 45.887756%, 46.455383%)" fill-opacity="1" d="M 3540.179688 1560.988281 C 3540.179688 1566.558594 3535.660156 1571.078125 3530.089844 1571.078125 C 3524.519531 1571.078125 3520 1566.558594 3520 1560.988281 C 3520 1555.421875 3524.519531 1550.898438 3530.089844 1550.898438 C 3535.660156 1550.898438 3540.179688 1555.421875 3540.179688 1560.988281 "/>
<path fill-rule="nonzero" fill="rgb(45.344543%, 45.887756%, 46.455383%)" fill-opacity="1" d="M 3540.179688 1630.019531 C 3540.179688 1635.589844 3535.660156 1640.109375 3530.089844 1640.109375 C 3524.519531 1640.109375 3520 1635.589844 3520 1630.019531 C 3520 1624.449219 3524.519531 1619.929688 3530.089844 1619.929688 C 3535.660156 1619.929688 3540.179688 1624.449219 3540.179688 1630.019531 "/>
<path fill-rule="nonzero" fill="rgb(45.344543%, 45.887756%, 46.455383%)" fill-opacity="1" d="M 1178.761719 1857.230469 C 1178.761719 1862.808594 1174.238281 1867.320312 1168.671875 1867.320312 C 1163.101562 1867.320312 1158.578125 1862.808594 1158.578125 1857.230469 C 1158.578125 1851.660156 1163.101562 1847.140625 1168.671875 1847.140625 C 1174.238281 1847.140625 1178.761719 1851.660156 1178.761719 1857.230469 "/>
<path fill-rule="nonzero" fill="rgb(45.344543%, 45.887756%, 46.455383%)" fill-opacity="1" d="M 1086.410156 1751.351562 C 1086.410156 1756.921875 1081.890625 1761.441406 1076.320312 1761.441406 C 1070.75 1761.441406 1066.230469 1756.921875 1066.230469 1751.351562 C 1066.230469 1745.78125 1070.75 1741.261719 1076.320312 1741.261719 C 1081.890625 1741.261719 1086.410156 1745.78125 1086.410156 1751.351562 "/>
<path fill-rule="nonzero" fill="rgb(45.344543%, 45.887756%, 46.455383%)" fill-opacity="1" d="M 847.789062 1764.898438 C 847.789062 1770.46875 843.273438 1774.988281 837.699219 1774.988281 C 832.128906 1774.988281 827.609375 1770.46875 827.609375 1764.898438 C 827.609375 1759.328125 832.128906 1754.808594 837.699219 1754.808594 C 843.273438 1754.808594 847.789062 1759.328125 847.789062 1764.898438 "/>
<path fill-rule="nonzero" fill="rgb(45.344543%, 45.887756%, 46.455383%)" fill-opacity="1" d="M 158.269531 1290.949219 C 158.269531 1296.519531 153.753906 1301.03125 148.183594 1301.03125 C 142.609375 1301.03125 138.09375 1296.519531 138.09375 1290.949219 C 138.09375 1285.371094 142.609375 1280.859375 148.183594 1280.859375 C 153.753906 1280.859375 158.269531 1285.371094 158.269531 1290.949219 "/>
<path fill-rule="nonzero" fill="rgb(45.344543%, 45.887756%, 46.455383%)" fill-opacity="1" d="M 148.183594 675.929688 C 148.183594 681.5 143.664062 686.011719 138.09375 686.011719 C 132.519531 686.011719 128.003906 681.5 128.003906 675.929688 C 128.003906 670.351562 132.519531 665.839844 138.09375 665.839844 C 143.664062 665.839844 148.183594 670.351562 148.183594 675.929688 "/>
<path fill-rule="nonzero" fill="rgb(45.344543%, 45.887756%, 46.455383%)" fill-opacity="1" d="M 148.183594 1388.589844 C 148.183594 1394.171875 143.664062 1398.679688 138.09375 1398.679688 C 132.519531 1398.679688 128.003906 1394.171875 128.003906 1388.589844 C 128.003906 1383.019531 132.519531 1378.511719 138.09375 1378.511719 C 143.664062 1378.511719 148.183594 1383.019531 148.183594 1388.589844 "/>
<path fill-rule="nonzero" fill="rgb(45.344543%, 45.887756%, 46.455383%)" fill-opacity="1" d="M 126.632812 1483.039062 C 126.632812 1488.609375 122.113281 1493.128906 116.542969 1493.128906 C 110.96875 1493.128906 106.453125 1488.609375 106.453125 1483.039062 C 106.453125 1477.46875 110.96875 1472.949219 116.542969 1472.949219 C 122.113281 1472.949219 126.632812 1477.46875 126.632812 1483.039062 "/>
<path fill-rule="nonzero" fill="rgb(45.344543%, 45.887756%, 46.455383%)" fill-opacity="1" d="M 1485.308594 1764.898438 C 1485.308594 1770.46875 1480.789062 1774.988281 1475.21875 1774.988281 C 1469.648438 1774.988281 1465.128906 1770.46875 1465.128906 1764.898438 C 1465.128906 1759.328125 1469.648438 1754.808594 1475.21875 1754.808594 C 1480.789062 1754.808594 1485.308594 1759.328125 1485.308594 1764.898438 "/>
<path fill-rule="nonzero" fill="rgb(45.344543%, 45.887756%, 46.455383%)" fill-opacity="1" d="M 1063.128906 1857.230469 C 1063.128906 1862.808594 1058.609375 1867.320312 1053.039062 1867.320312 C 1047.46875 1867.320312 1042.949219 1862.808594 1042.949219 1857.230469 C 1042.949219 1851.660156 1047.46875 1847.140625 1053.039062 1847.140625 C 1058.609375 1847.140625 1063.128906 1851.660156 1063.128906 1857.230469 "/>
<path fill-rule="nonzero" fill="rgb(45.344543%, 45.887756%, 46.455383%)" fill-opacity="1" d="M 3588.78125 1531.179688 C 3588.78125 1536.75 3584.269531 1541.269531 3578.691406 1541.269531 C 3573.121094 1541.269531 3568.601562 1536.75 3568.601562 1531.179688 C 3568.601562 1525.609375 3573.121094 1521.089844 3578.691406 1521.089844 C 3584.269531 1521.089844 3588.78125 1525.609375 3588.78125 1531.179688 "/>
<path fill-rule="nonzero" fill="rgb(45.344543%, 45.887756%, 46.455383%)" fill-opacity="1" d="M 3664.148438 942.929688 C 3664.148438 948.511719 3659.628906 953.019531 3654.058594 953.019531 C 3648.480469 953.019531 3643.96875 948.511719 3643.96875 942.929688 C 3643.96875 937.359375 3648.480469 932.839844 3654.058594 932.839844 C 3659.628906 932.839844 3664.148438 937.359375 3664.148438 942.929688 "/>
<path fill-rule="nonzero" fill="rgb(45.344543%, 45.887756%, 46.455383%)" fill-opacity="1" d="M 3459.570312 1720.398438 C 3459.570312 1725.96875 3455.058594 1730.488281 3449.488281 1730.488281 C 3443.910156 1730.488281 3439.398438 1725.96875 3439.398438 1720.398438 C 3439.398438 1714.828125 3443.910156 1710.308594 3449.488281 1710.308594 C 3455.058594 1710.308594 3459.570312 1714.828125 3459.570312 1720.398438 "/>
<path fill-rule="nonzero" fill="rgb(45.344543%, 45.887756%, 46.455383%)" fill-opacity="1" d="M 2570.019531 1867.070312 C 2570.019531 1872.648438 2565.5 1877.160156 2559.929688 1877.160156 C 2554.359375 1877.160156 2549.839844 1872.648438 2549.839844 1867.070312 C 2549.839844 1861.5 2554.359375 1856.980469 2559.929688 1856.980469 C 2565.5 1856.980469 2570.019531 1861.5 2570.019531 1867.070312 "/>
<path fill-rule="nonzero" fill="rgb(45.344543%, 45.887756%, 46.455383%)" fill-opacity="1" d="M 2442.988281 1467.039062 C 2442.988281 1472.609375 2438.46875 1477.128906 2432.898438 1477.128906 C 2427.328125 1477.128906 2422.808594 1472.609375 2422.808594 1467.039062 C 2422.808594 1461.46875 2427.328125 1456.949219 2432.898438 1456.949219 C 2438.46875 1456.949219 2442.988281 1461.46875 2442.988281 1467.039062 "/>
<path fill-rule="nonzero" fill="rgb(45.344543%, 45.887756%, 46.455383%)" fill-opacity="1" d="M 2126.660156 1467.039062 C 2126.660156 1472.609375 2122.140625 1477.128906 2116.570312 1477.128906 C 2111 1477.128906 2106.480469 1472.609375 2106.480469 1467.039062 C 2106.480469 1461.46875 2111 1456.949219 2116.570312 1456.949219 C 2122.140625 1456.949219 2126.660156 1461.46875 2126.660156 1467.039062 "/>
<path fill-rule="nonzero" fill="rgb(45.344543%, 45.887756%, 46.455383%)" fill-opacity="1" d="M 564.90625 1387.101562 C 564.90625 1392.679688 560.390625 1397.191406 554.820312 1397.191406 C 549.246094 1397.191406 544.730469 1392.679688 544.730469 1387.101562 C 544.730469 1381.53125 549.246094 1377.019531 554.820312 1377.019531 C 560.390625 1377.019531 564.90625 1381.53125 564.90625 1387.101562 "/>
<path fill-rule="nonzero" fill="rgb(45.344543%, 45.887756%, 46.455383%)" fill-opacity="1" d="M 650.976562 1147.988281 C 650.976562 1153.558594 646.460938 1158.078125 640.890625 1158.078125 C 635.316406 1158.078125 630.800781 1153.558594 630.800781 1147.988281 C 630.800781 1142.421875 635.316406 1137.898438 640.890625 1137.898438 C 646.460938 1137.898438 650.976562 1142.421875 650.976562 1147.988281 "/>
<path fill="none" stroke-width="45.5607" stroke-linecap="butt" stroke-linejoin="miter" stroke="rgb(45.344543%, 45.887756%, 46.455383%)" stroke-opacity="1" stroke-miterlimit="10" d="M 36572.617188 16000.703125 L 35295 14723.007812 L 35295 12850.78125 L 36013.085938 12132.695312 " transform="matrix(0.1, 0, 0, -0.1, 0, 2543)"/>
<path fill="none" stroke-width="45.5607" stroke-linecap="butt" stroke-linejoin="miter" stroke="rgb(45.344543%, 45.887756%, 46.455383%)" stroke-opacity="1" stroke-miterlimit="10" d="M 34494.882812 8226.015625 L 27066.015625 8226.015625 L 25599.296875 6759.296875 " transform="matrix(0.1, 0, 0, -0.1, 0, 2543)"/>
<path fill="none" stroke-width="45.5607" stroke-linecap="butt" stroke-linejoin="miter" stroke="rgb(45.344543%, 45.887756%, 46.455383%)" stroke-opacity="1" stroke-miterlimit="10" d="M 6408.90625 13950.117188 L 6408.90625 12419.6875 L 5548.203125 11558.984375 " transform="matrix(0.1, 0, 0, -0.1, 0, 2543)"/>
<path fill="none" stroke-width="45.5607" stroke-linecap="butt" stroke-linejoin="miter" stroke="rgb(45.344543%, 45.887756%, 46.455383%)" stroke-opacity="1" stroke-miterlimit="10" d="M 21165.703125 10759.609375 L 24328.984375 10759.609375 " transform="matrix(0.1, 0, 0, -0.1, 0, 2543)"/>
<path fill="none" stroke-width="45.5607" stroke-linecap="butt" stroke-linejoin="miter" stroke="rgb(45.344543%, 45.887756%, 46.455383%)" stroke-opacity="1" stroke-miterlimit="10" d="M 33842.1875 14195.390625 L 34805.507812 13232.109375 " transform="matrix(0.1, 0, 0, -0.1, 0, 2543)"/>
<path fill="none" stroke-width="100" stroke-linecap="butt" stroke-linejoin="miter" stroke="rgb(45.344543%, 45.887756%, 46.455383%)" stroke-opacity="1" stroke-miterlimit="10" d="M 34876.796875 8702.617188 L 26722.890625 8702.617188 L 25328.203125 7307.8125 L 23827.382812 7307.8125 L 20140.507812 10994.6875 L 17984.21875 10994.6875 " transform="matrix(0.1, 0, 0, -0.1, 0, 2543)"/>
<g clip-path="url(#clip-1)">
<path fill="none" stroke-width="100" stroke-linecap="butt" stroke-linejoin="miter" stroke="rgb(45.344543%, 45.887756%, 46.455383%)" stroke-opacity="1" stroke-miterlimit="10" d="M 36192.890625 10148.789062 L 34455.703125 11886.015625 L 32243.59375 11886.015625 L 29269.804688 14859.804688 L 26127.890625 14859.804688 L 24676.484375 13408.398438 L 22547.5 13408.398438 L 20392.5 15563.398438 " transform="matrix(0.1, 0, 0, -0.1, 0, 2543)"/>
</g>
<path fill="none" stroke-width="100" stroke-linecap="butt" stroke-linejoin="miter" stroke="rgb(45.344543%, 45.887756%, 46.455383%)" stroke-opacity="1" stroke-miterlimit="10" d="M 11635.585938 7363.28125 L 14548.515625 10276.210938 L 14548.515625 12404.21875 L 16504.492188 14360.195312 L 19561.484375 14360.195312 " transform="matrix(0.1, 0, 0, -0.1, 0, 2543)"/>
<path fill="none" stroke-width="100" stroke-linecap="butt" stroke-linejoin="miter" stroke="rgb(45.344543%, 45.887756%, 46.455383%)" stroke-opacity="1" stroke-miterlimit="10" d="M 937.1875 8783.28125 L 3584.960938 8783.28125 L 4885.625 10083.90625 L 9061.914062 10083.90625 L 12547.8125 13569.882812 " transform="matrix(0.1, 0, 0, -0.1, 0, 2543)"/>
<path fill="none" stroke-width="100" stroke-linecap="butt" stroke-linejoin="miter" stroke="rgb(45.344543%, 45.887756%, 46.455383%)" stroke-opacity="1" stroke-miterlimit="10" d="M 3715.273438 7952.890625 L 4456.992188 8694.6875 L 6384.648438 8694.6875 " transform="matrix(0.1, 0, 0, -0.1, 0, 2543)"/>
<path fill="none" stroke-width="100" stroke-linecap="butt" stroke-linejoin="miter" stroke="rgb(45.344543%, 45.887756%, 46.455383%)" stroke-opacity="1" stroke-miterlimit="10" d="M 9280.273438 7363.28125 L 9280.273438 8783.28125 L 10268.515625 9771.601562 L 11401.992188 9771.601562 L 12924.21875 11293.710938 L 12924.21875 12026.210938 " transform="matrix(0.1, 0, 0, -0.1, 0, 2543)"/>
<g clip-path="url(#clip-2)">
<path fill="none" stroke-width="100" stroke-linecap="butt" stroke-linejoin="miter" stroke="rgb(45.344543%, 45.887756%, 46.455383%)" stroke-opacity="1" stroke-miterlimit="10" d="M 32672.890625 12617.617188 L 32672.890625 14037.617188 L 33661.09375 15025.898438 L 34794.6875 15025.898438 L 36316.796875 16548.085938 L 36316.796875 17280.585938 " transform="matrix(0.1, 0, 0, -0.1, 0, 2543)"/>
</g>
<path fill="none" stroke-width="100" stroke-linecap="butt" stroke-linejoin="miter" stroke="rgb(45.344543%, 45.887756%, 46.455383%)" stroke-opacity="1" stroke-miterlimit="10" d="M 13449.414062 7952.890625 L 15426.289062 9929.882812 L 15426.289062 11363.398438 L 16360.585938 12297.695312 " transform="matrix(0.1, 0, 0, -0.1, 0, 2543)"/>
<path fill="none" stroke-width="100" stroke-linecap="butt" stroke-linejoin="miter" stroke="rgb(45.344543%, 45.887756%, 46.455383%)" stroke-opacity="1" stroke-miterlimit="10" d="M 4934.53125 15971.992188 L 6010.273438 15971.992188 L 8696.484375 13285.78125 L 9280.273438 13285.78125 " transform="matrix(0.1, 0, 0, -0.1, 0, 2543)"/>
<path fill="none" stroke-width="100" stroke-linecap="butt" stroke-linejoin="miter" stroke="rgb(45.344543%, 45.887756%, 46.455383%)" stroke-opacity="1" stroke-miterlimit="10" d="M 1481.835938 15339.21875 L 2859.101562 15339.21875 L 4757.539062 13440.78125 L 5371.757812 13440.78125 " transform="matrix(0.1, 0, 0, -0.1, 0, 2543)"/>
<path fill="none" stroke-width="100" stroke-linecap="butt" stroke-linejoin="miter" stroke="rgb(45.344543%, 45.887756%, 46.455383%)" stroke-opacity="1" stroke-miterlimit="10" d="M 21432.5 11585.585938 L 24361.914062 11585.585938 L 25225.898438 10721.601562 L 28068.710938 10721.601562 L 29177.617188 9612.695312 L 34049.101562 9612.695312 " transform="matrix(0.1, 0, 0, -0.1, 0, 2543)"/>
<path fill="none" stroke-width="100" stroke-linecap="butt" stroke-linejoin="miter" stroke="rgb(45.344543%, 45.887756%, 46.455383%)" stroke-opacity="1" stroke-miterlimit="10" d="M 23681.09375 8061.914062 L 24991.484375 9372.1875 L 27522.382812 9372.1875 " transform="matrix(0.1, 0, 0, -0.1, 0, 2543)"/>
<path fill="none" stroke-width="100" stroke-linecap="butt" stroke-linejoin="miter" stroke="rgb(45.344543%, 45.887756%, 46.455383%)" stroke-opacity="1" stroke-miterlimit="10" d="M 21675.898438 7952.890625 L 20655.507812 8973.28125 " transform="matrix(0.1, 0, 0, -0.1, 0, 2543)"/>
<path fill="none" stroke-width="100" stroke-linecap="butt" stroke-linejoin="miter" stroke="rgb(45.344543%, 45.887756%, 46.455383%)" stroke-opacity="1" stroke-miterlimit="10" d="M 34248.28125 12429.804688 L 33228.007812 13450.117188 " transform="matrix(0.1, 0, 0, -0.1, 0, 2543)"/>
<path fill="none" stroke-width="100" stroke-linecap="butt" stroke-linejoin="miter" stroke="rgb(45.344543%, 45.887756%, 46.455383%)" stroke-opacity="1" stroke-miterlimit="10" d="M 34090.117188 9760.195312 C 34177.5 9847.617188 34319.21875 9847.617188 34406.484375 9760.195312 C 34493.90625 9672.890625 34493.90625 9531.210938 34406.484375 9443.789062 C 34319.21875 9356.484375 34177.5 9356.484375 34090.117188 9443.789062 C 34002.695312 9531.210938 34002.695312 9672.890625 34090.117188 9760.195312 Z M 34090.117188 9760.195312 " transform="matrix(0.1, 0, 0, -0.1, 0, 2543)"/>
<path fill="none" stroke-width="100" stroke-linecap="butt" stroke-linejoin="miter" stroke="rgb(45.344543%, 45.887756%, 46.455383%)" stroke-opacity="1" stroke-miterlimit="10" d="M 34942.304688 8839.296875 C 35029.6875 8926.71875 35171.40625 8926.71875 35258.789062 8839.296875 C 35346.09375 8751.914062 35346.09375 8610.3125 35258.789062 8522.890625 C 35171.40625 8435.507812 35029.6875 8435.507812 34942.304688 8522.890625 C 34855 8610.3125 34855 8751.914062 34942.304688 8839.296875 Z M 34942.304688 8839.296875 " transform="matrix(0.1, 0, 0, -0.1, 0, 2543)"/>
<g clip-path="url(#clip-3)">
<path fill="none" stroke-width="100" stroke-linecap="butt" stroke-linejoin="miter" stroke="rgb(45.344543%, 45.887756%, 46.455383%)" stroke-opacity="1" stroke-miterlimit="10" d="M 36206.601562 10146.914062 C 36293.984375 10234.296875 36435.703125 10234.296875 36523.007812 10146.914062 C 36610.390625 10059.492188 36610.390625 9917.8125 36523.007812 9830.507812 C 36435.703125 9743.085938 36293.984375 9743.085938 36206.601562 9830.507812 C 36119.296875 9917.8125 36119.296875 10059.492188 36206.601562 10146.914062 Z M 36206.601562 10146.914062 " transform="matrix(0.1, 0, 0, -0.1, 0, 2543)"/>
</g>
<g clip-path="url(#clip-4)">
<path fill="none" stroke-width="100" stroke-linecap="butt" stroke-linejoin="miter" stroke="rgb(45.344543%, 45.887756%, 46.455383%)" stroke-opacity="1" stroke-miterlimit="10" d="M 36158.59375 17662.5 C 36246.015625 17749.882812 36387.695312 17749.882812 36475 17662.5 C 36562.382812 17575.117188 36562.382812 17433.515625 36475 17346.09375 C 36387.695312 17258.710938 36246.015625 17258.710938 36158.59375 17346.09375 C 36071.289062 17433.515625 36071.289062 17575.117188 36158.59375 17662.5 Z M 36158.59375 17662.5 " transform="matrix(0.1, 0, 0, -0.1, 0, 2543)"/>
</g>
<path fill="none" stroke-width="100" stroke-linecap="butt" stroke-linejoin="miter" stroke="rgb(45.344543%, 45.887756%, 46.455383%)" stroke-opacity="1" stroke-miterlimit="10" d="M 27591.210938 9536.484375 C 27678.59375 9623.90625 27820.195312 9623.90625 27907.617188 9536.484375 C 27995 9449.101562 27995 9307.5 27907.617188 9220.117188 C 27820.195312 9132.695312 27678.59375 9132.695312 27591.210938 9220.117188 C 27503.789062 9307.5 27503.789062 9449.101562 27591.210938 9536.484375 Z M 27591.210938 9536.484375 " transform="matrix(0.1, 0, 0, -0.1, 0, 2543)"/>
<path fill="none" stroke-width="100" stroke-linecap="butt" stroke-linejoin="miter" stroke="rgb(45.344543%, 45.887756%, 46.455383%)" stroke-opacity="1" stroke-miterlimit="10" d="M 22465.390625 9388.90625 C 22552.695312 9476.289062 22694.414062 9476.289062 22781.796875 9388.90625 C 22869.101562 9301.484375 22869.101562 9159.882812 22781.796875 9072.5 C 22694.414062 8985.117188 22552.695312 8985.117188 22465.390625 9072.5 C 22378.007812 9159.882812 22378.007812 9301.484375 22465.390625 9388.90625 Z M 22465.390625 9388.90625 " transform="matrix(0.1, 0, 0, -0.1, 0, 2543)"/>
<path fill="none" stroke-width="100" stroke-linecap="butt" stroke-linejoin="miter" stroke="rgb(45.344543%, 45.887756%, 46.455383%)" stroke-opacity="1" stroke-miterlimit="10" d="M 21060.117188 11742.109375 C 21147.5 11829.492188 21289.21875 11829.492188 21376.484375 11742.109375 C 21463.90625 11654.6875 21463.90625 11513.007812 21376.484375 11425.703125 C 21289.21875 11338.28125 21147.5 11338.28125 21060.117188 11425.703125 C 20972.695312 11513.007812 20972.695312 11654.6875 21060.117188 11742.109375 Z M 21060.117188 11742.109375 " transform="matrix(0.1, 0, 0, -0.1, 0, 2543)"/>
<path fill="none" stroke-width="100" stroke-linecap="butt" stroke-linejoin="miter" stroke="rgb(45.344543%, 45.887756%, 46.455383%)" stroke-opacity="1" stroke-miterlimit="10" d="M 20328.515625 9300 C 20415.898438 9387.382812 20557.617188 9387.382812 20644.882812 9300 C 20732.304688 9212.695312 20732.304688 9071.015625 20644.882812 8983.59375 C 20557.617188 8896.289062 20415.898438 8896.289062 20328.515625 8983.59375 C 20241.210938 9071.015625 20241.210938 9212.695312 20328.515625 9300 Z M 20328.515625 9300 " transform="matrix(0.1, 0, 0, -0.1, 0, 2543)"/>
<path fill-rule="nonzero" fill="rgb(45.344543%, 45.887756%, 46.455383%)" fill-opacity="1" d="M 2151.769531 1731.890625 C 2160.511719 1723.148438 2174.671875 1723.148438 2183.410156 1731.890625 C 2192.148438 1740.621094 2192.148438 1754.789062 2183.410156 1763.53125 C 2174.671875 1772.261719 2160.511719 1772.261719 2151.769531 1763.53125 C 2143.03125 1754.789062 2143.03125 1740.621094 2151.769531 1731.890625 "/>
<path fill-rule="nonzero" fill="rgb(45.344543%, 45.887756%, 46.455383%)" fill-opacity="1" d="M 2359.550781 1716.679688 C 2368.289062 1707.941406 2382.449219 1707.941406 2391.191406 1716.679688 C 2399.929688 1725.421875 2399.929688 1739.578125 2391.191406 1748.320312 C 2382.449219 1757.058594 2368.289062 1757.058594 2359.550781 1748.320312 C 2350.808594 1739.578125 2350.808594 1725.421875 2359.550781 1716.679688 "/>
<path fill-rule="nonzero" fill="rgb(45.344543%, 45.887756%, 46.455383%)" fill-opacity="1" d="M 2608.679688 1547.871094 C 2617.421875 1539.140625 2631.589844 1539.140625 2640.328125 1547.871094 C 2649.058594 1556.609375 2649.058594 1570.78125 2640.328125 1579.511719 C 2631.589844 1588.25 2617.421875 1588.25 2608.679688 1579.511719 C 2599.949219 1570.78125 2599.949219 1556.609375 2608.679688 1547.871094 "/>
<path fill-rule="nonzero" fill="rgb(45.344543%, 45.887756%, 46.455383%)" fill-opacity="1" d="M 2530.980469 1206.859375 C 2539.71875 1198.121094 2553.890625 1198.121094 2562.621094 1206.859375 C 2571.359375 1215.589844 2571.359375 1229.761719 2562.621094 1238.5 C 2553.890625 1247.238281 2539.71875 1247.238281 2530.980469 1238.5 C 2522.25 1229.761719 2522.25 1215.589844 2530.980469 1206.859375 "/>
<path fill-rule="nonzero" fill="rgb(45.344543%, 45.887756%, 46.455383%)" fill-opacity="1" d="M 2917.109375 1322.03125 C 2925.839844 1313.289062 2940.011719 1313.289062 2948.75 1322.03125 C 2957.488281 1330.769531 2957.488281 1344.929688 2948.75 1353.671875 C 2940.011719 1362.410156 2925.839844 1362.410156 2917.109375 1353.671875 C 2908.371094 1344.929688 2908.371094 1330.769531 2917.109375 1322.03125 "/>
<path fill-rule="nonzero" fill="rgb(45.344543%, 45.887756%, 46.455383%)" fill-opacity="1" d="M 3251.46875 1265.421875 C 3260.199219 1256.679688 3274.371094 1256.679688 3283.109375 1265.421875 C 3291.851562 1274.160156 3291.851562 1288.320312 3283.109375 1297.058594 C 3274.371094 1305.800781 3260.199219 1305.800781 3251.46875 1297.058594 C 3242.730469 1288.320312 3242.730469 1274.160156 3251.46875 1265.421875 "/>
<path fill-rule="nonzero" fill="rgb(45.344543%, 45.887756%, 46.455383%)" fill-opacity="1" d="M 3306.980469 1182.171875 C 3315.710938 1173.429688 3329.878906 1173.429688 3338.621094 1182.171875 C 3347.351562 1190.910156 3347.351562 1205.070312 3338.621094 1213.808594 C 3329.878906 1222.550781 3315.710938 1222.550781 3306.980469 1213.808594 C 3298.238281 1205.070312 3298.238281 1190.910156 3306.980469 1182.171875 "/>
<path fill-rule="nonzero" fill="rgb(45.344543%, 45.887756%, 46.455383%)" fill-opacity="1" d="M 3419.839844 1294.058594 C 3428.578125 1285.320312 3442.75 1285.320312 3451.480469 1294.058594 C 3460.21875 1302.789062 3460.21875 1316.960938 3451.480469 1325.699219 C 3442.75 1334.429688 3428.578125 1334.429688 3419.839844 1325.699219 C 3411.109375 1316.960938 3411.109375 1302.789062 3419.839844 1294.058594 "/>
<path fill-rule="nonzero" fill="rgb(45.344543%, 45.887756%, 46.455383%)" fill-opacity="1" d="M 3620.660156 1427.710938 C 3629.398438 1418.96875 3643.570312 1418.96875 3652.300781 1427.710938 C 3661.039062 1436.449219 3661.039062 1450.609375 3652.300781 1459.351562 C 3643.570312 1468.089844 3629.398438 1468.089844 3620.660156 1459.351562 C 3611.929688 1450.609375 3611.929688 1436.449219 3620.660156 1427.710938 "/>
<path fill-rule="nonzero" fill="rgb(45.344543%, 45.887756%, 46.455383%)" fill-opacity="1" d="M 3315.28125 1119.960938 C 3324.011719 1111.21875 3338.179688 1111.21875 3346.921875 1119.960938 C 3355.648438 1128.691406 3355.648438 1142.859375 3346.921875 1151.601562 C 3338.179688 1160.328125 3324.011719 1160.328125 3315.28125 1151.601562 C 3306.539062 1142.859375 3306.539062 1128.691406 3315.28125 1119.960938 "/>
<path fill-rule="nonzero" fill="rgb(45.344543%, 45.887756%, 46.455383%)" fill-opacity="1" d="M 3416.558594 1069.359375 C 3425.300781 1060.621094 3439.46875 1060.621094 3448.210938 1069.359375 C 3456.941406 1078.089844 3456.941406 1092.261719 3448.210938 1101 C 3439.46875 1109.730469 3425.300781 1109.730469 3416.558594 1101 C 3407.828125 1092.261719 3407.828125 1078.089844 3416.558594 1069.359375 "/>
<path fill-rule="nonzero" fill="rgb(45.344543%, 45.887756%, 46.455383%)" fill-opacity="1" d="M 3475.808594 1134.128906 C 3484.550781 1125.390625 3498.71875 1125.390625 3507.449219 1134.128906 C 3516.191406 1142.871094 3516.191406 1157.03125 3507.449219 1165.769531 C 3498.71875 1174.511719 3484.550781 1174.511719 3475.808594 1165.769531 C 3467.078125 1157.03125 3467.078125 1142.871094 3475.808594 1134.128906 "/>
<path fill-rule="nonzero" fill="rgb(45.344543%, 45.887756%, 46.455383%)" fill-opacity="1" d="M 2566.480469 1636.851562 C 2575.21875 1628.109375 2589.390625 1628.109375 2598.121094 1636.851562 C 2606.859375 1645.578125 2606.859375 1659.75 2598.121094 1668.488281 C 2589.390625 1677.21875 2575.21875 1677.21875 2566.480469 1668.488281 C 2557.738281 1659.75 2557.738281 1645.578125 2566.480469 1636.851562 "/>
<path fill-rule="nonzero" fill="rgb(45.344543%, 45.887756%, 46.455383%)" fill-opacity="1" d="M 2759.121094 1391.171875 C 2767.859375 1382.429688 2782.019531 1382.429688 2790.761719 1391.171875 C 2799.5 1399.898438 2799.5 1414.070312 2790.761719 1422.808594 C 2782.019531 1431.539062 2767.859375 1431.539062 2759.121094 1422.808594 C 2750.378906 1414.070312 2750.378906 1399.898438 2759.121094 1391.171875 "/>
<path fill-rule="nonzero" fill="rgb(45.344543%, 45.887756%, 46.455383%)" fill-opacity="1" d="M 2184.351562 1326.878906 C 2193.089844 1318.140625 2207.261719 1318.140625 2215.988281 1326.878906 C 2224.730469 1335.621094 2224.730469 1349.789062 2215.988281 1358.519531 C 2207.261719 1367.261719 2193.089844 1367.261719 2184.351562 1358.519531 C 2175.609375 1349.789062 2175.609375 1335.621094 2184.351562 1326.878906 "/>
<path fill-rule="nonzero" fill="rgb(45.344543%, 45.887756%, 46.455383%)" fill-opacity="1" d="M 2122.019531 1276.679688 C 2130.761719 1267.949219 2144.929688 1267.949219 2153.660156 1276.679688 C 2162.398438 1285.421875 2162.398438 1299.589844 2153.660156 1308.320312 C 2144.929688 1317.058594 2130.761719 1317.058594 2122.019531 1308.320312 C 2113.28125 1299.589844 2113.28125 1285.421875 2122.019531 1276.679688 "/>
<path fill-rule="nonzero" fill="rgb(45.344543%, 45.887756%, 46.455383%)" fill-opacity="1" d="M 1812.328125 1220.53125 C 1821.070312 1211.789062 1835.230469 1211.789062 1843.96875 1220.53125 C 1852.710938 1229.269531 1852.710938 1243.429688 1843.96875 1252.171875 C 1835.230469 1260.910156 1821.070312 1260.910156 1812.328125 1252.171875 C 1803.589844 1243.429688 1803.589844 1229.269531 1812.328125 1220.53125 "/>
<path fill-rule="nonzero" fill="rgb(45.344543%, 45.887756%, 46.455383%)" fill-opacity="1" d="M 1890.058594 1132.171875 C 1898.800781 1123.429688 1912.960938 1123.429688 1921.699219 1132.171875 C 1930.441406 1140.910156 1930.441406 1155.070312 1921.699219 1163.808594 C 1912.960938 1172.550781 1898.800781 1172.550781 1890.058594 1163.808594 C 1881.320312 1155.070312 1881.320312 1140.910156 1890.058594 1132.171875 "/>
<path fill-rule="nonzero" fill="rgb(45.344543%, 45.887756%, 46.455383%)" fill-opacity="1" d="M 1635.488281 1188.308594 C 1644.21875 1179.578125 1658.390625 1179.578125 1667.128906 1188.308594 C 1675.859375 1197.050781 1675.859375 1211.21875 1667.128906 1219.960938 C 1658.390625 1228.691406 1644.21875 1228.691406 1635.488281 1219.960938 C 1626.75 1211.21875 1626.75 1197.050781 1635.488281 1188.308594 "/>
<path fill-rule="nonzero" fill="rgb(45.344543%, 45.887756%, 46.455383%)" fill-opacity="1" d="M 1823.171875 1372.988281 C 1831.910156 1364.25 1846.078125 1364.25 1854.820312 1372.988281 C 1863.550781 1381.730469 1863.550781 1395.890625 1854.820312 1404.628906 C 1846.078125 1413.371094 1831.910156 1413.371094 1823.171875 1404.628906 C 1814.441406 1395.890625 1814.441406 1381.730469 1823.171875 1372.988281 "/>
<path fill-rule="nonzero" fill="rgb(45.344543%, 45.887756%, 46.455383%)" fill-opacity="1" d="M 1940.328125 1490.519531 C 1949.070312 1481.78125 1963.230469 1481.78125 1971.96875 1490.519531 C 1980.710938 1499.261719 1980.710938 1513.421875 1971.96875 1522.160156 C 1963.230469 1530.898438 1949.070312 1530.898438 1940.328125 1522.160156 C 1931.589844 1513.421875 1931.589844 1499.261719 1940.328125 1490.519531 "/>
<path fill-rule="nonzero" fill="rgb(45.344543%, 45.887756%, 46.455383%)" fill-opacity="1" d="M 1481.378906 1658.890625 C 1490.121094 1650.148438 1504.289062 1650.148438 1513.019531 1658.890625 C 1521.761719 1667.621094 1521.761719 1681.789062 1513.019531 1690.53125 C 1504.289062 1699.261719 1490.121094 1699.261719 1481.378906 1690.53125 C 1472.640625 1681.789062 1472.640625 1667.621094 1481.378906 1658.890625 "/>
<path fill-rule="nonzero" fill="rgb(45.344543%, 45.887756%, 46.455383%)" fill-opacity="1" d="M 2459.691406 1744.898438 C 2468.429688 1736.160156 2482.601562 1736.160156 2491.328125 1744.898438 C 2500.070312 1753.640625 2500.070312 1767.800781 2491.328125 1776.539062 C 2482.601562 1785.28125 2468.429688 1785.28125 2459.691406 1776.539062 C 2450.960938 1767.800781 2450.960938 1753.640625 2459.691406 1744.898438 "/>
<path fill-rule="nonzero" fill="rgb(45.344543%, 45.887756%, 46.455383%)" fill-opacity="1" d="M 1147.738281 1790.851562 C 1156.480469 1782.109375 1170.648438 1782.109375 1179.378906 1790.851562 C 1188.121094 1799.589844 1188.121094 1813.75 1179.378906 1822.488281 C 1170.648438 1831.230469 1156.480469 1831.230469 1147.738281 1822.488281 C 1139.011719 1813.75 1139.011719 1799.589844 1147.738281 1790.851562 "/>
<path fill-rule="nonzero" fill="rgb(45.344543%, 45.887756%, 46.455383%)" fill-opacity="1" d="M 77.898438 1649.800781 C 86.636719 1641.058594 100.804688 1641.058594 109.539062 1649.800781 C 118.277344 1658.53125 118.277344 1672.699219 109.539062 1681.441406 C 100.804688 1690.179688 86.636719 1690.179688 77.898438 1681.441406 C 69.164062 1672.699219 69.164062 1658.53125 77.898438 1649.800781 "/>
<path fill-rule="nonzero" fill="rgb(45.344543%, 45.887756%, 46.455383%)" fill-opacity="1" d="M 391.039062 1512.300781 C 399.777344 1503.558594 413.941406 1503.558594 422.679688 1512.300781 C 431.417969 1521.039062 431.417969 1535.199219 422.679688 1543.941406 C 413.941406 1552.679688 399.777344 1552.679688 391.039062 1543.941406 C 382.304688 1535.199219 382.304688 1521.039062 391.039062 1512.300781 "/>
<path fill-rule="nonzero" fill="rgb(45.344543%, 45.887756%, 46.455383%)" fill-opacity="1" d="M 132.363281 993.261719 C 141.097656 984.519531 155.265625 984.519531 164.003906 993.261719 C 172.738281 1002 172.738281 1016.160156 164.003906 1024.898438 C 155.265625 1033.640625 141.097656 1033.640625 132.363281 1024.898438 C 123.625 1016.160156 123.625 1002 132.363281 993.261719 "/>
<path fill-rule="nonzero" fill="rgb(45.344543%, 45.887756%, 46.455383%)" fill-opacity="1" d="M 552.992188 993.261719 C 561.730469 984.519531 575.898438 984.519531 584.636719 993.261719 C 593.371094 1002 593.371094 1016.160156 584.636719 1024.898438 C 575.898438 1033.640625 561.730469 1033.640625 552.992188 1024.898438 C 544.257812 1016.160156 544.257812 1002 552.992188 993.261719 "/>
<path fill-rule="nonzero" fill="rgb(45.344543%, 45.887756%, 46.455383%)" fill-opacity="1" d="M 694.917969 1347.898438 C 703.65625 1339.171875 717.820312 1339.171875 726.558594 1347.898438 C 735.296875 1356.640625 735.296875 1370.808594 726.558594 1379.539062 C 717.820312 1388.28125 703.65625 1388.28125 694.917969 1379.539062 C 686.183594 1370.808594 686.183594 1356.640625 694.917969 1347.898438 "/>
<path fill-rule="nonzero" fill="rgb(45.344543%, 45.887756%, 46.455383%)" fill-opacity="1" d="M 934.578125 1301.558594 C 943.316406 1292.820312 957.484375 1292.820312 966.21875 1301.558594 C 974.957031 1310.300781 974.957031 1324.460938 966.21875 1333.199219 C 957.484375 1341.941406 943.316406 1341.941406 934.578125 1333.199219 C 925.84375 1324.460938 925.84375 1310.300781 934.578125 1301.558594 "/>
<path fill-rule="nonzero" fill="rgb(45.344543%, 45.887756%, 46.455383%)" fill-opacity="1" d="M 760.570312 1294.070312 C 769.308594 1285.339844 783.472656 1285.339844 792.210938 1294.070312 C 800.949219 1302.808594 800.949219 1316.980469 792.210938 1325.710938 C 783.472656 1334.449219 769.308594 1334.449219 760.570312 1325.710938 C 751.832031 1316.980469 751.832031 1302.808594 760.570312 1294.070312 "/>
<path fill-rule="nonzero" fill="rgb(45.344543%, 45.887756%, 46.455383%)" fill-opacity="1" d="M 760.570312 1182.351562 C 769.308594 1173.621094 783.472656 1173.621094 792.210938 1182.351562 C 800.949219 1191.089844 800.949219 1205.261719 792.210938 1214 C 783.472656 1222.730469 769.308594 1222.730469 760.570312 1213.988281 C 751.832031 1205.261719 751.832031 1191.089844 760.570312 1182.351562 "/>
<path fill="none" stroke-width="100" stroke-linecap="butt" stroke-linejoin="miter" stroke="rgb(45.344543%, 45.887756%, 46.455383%)" stroke-opacity="1" stroke-miterlimit="10" d="M 20068.203125 15925.703125 C 20155.585938 16013.085938 20297.304688 16013.085938 20384.6875 15925.703125 C 20471.992188 15838.28125 20471.992188 15696.71875 20384.6875 15609.296875 C 20297.304688 15521.914062 20155.585938 15521.914062 20068.203125 15609.296875 C 19980.898438 15696.71875 19980.898438 15838.28125 20068.203125 15925.703125 Z M 20068.203125 15925.703125 " transform="matrix(0.1, 0, 0, -0.1, 0, 2543)"/>
<path fill="none" stroke-width="100" stroke-linecap="butt" stroke-linejoin="miter" stroke="rgb(45.344543%, 45.887756%, 46.455383%)" stroke-opacity="1" stroke-miterlimit="10" d="M 17577.382812 11141.484375 C 17664.804688 11228.90625 17806.484375 11228.90625 17893.789062 11141.484375 C 17981.210938 11054.21875 17981.210938 10912.5 17893.789062 10825.117188 C 17806.484375 10737.8125 17664.804688 10737.8125 17577.382812 10825.117188 C 17490.117188 10912.5 17490.117188 11054.21875 17577.382812 11141.484375 Z M 17577.382812 11141.484375 " transform="matrix(0.1, 0, 0, -0.1, 0, 2543)"/>
<path fill="none" stroke-width="100" stroke-linecap="butt" stroke-linejoin="miter" stroke="rgb(45.344543%, 45.887756%, 46.455383%)" stroke-opacity="1" stroke-miterlimit="10" d="M 16111.09375 11700.117188 C 16198.515625 11787.5 16340.195312 11787.5 16427.5 11700.117188 C 16514.882812 11612.695312 16514.882812 11471.09375 16427.5 11383.710938 C 16340.195312 11296.289062 16198.515625 11296.289062 16111.09375 11383.710938 C 16023.789062 11471.09375 16023.789062 11612.695312 16111.09375 11700.117188 Z M 16111.09375 11700.117188 " transform="matrix(0.1, 0, 0, -0.1, 0, 2543)"/>
<path fill="none" stroke-width="100" stroke-linecap="butt" stroke-linejoin="miter" stroke="rgb(45.344543%, 45.887756%, 46.455383%)" stroke-opacity="1" stroke-miterlimit="10" d="M 16334.882812 12643.515625 C 16422.1875 12730.78125 16563.90625 12730.78125 16651.289062 12643.515625 C 16738.59375 12556.09375 16738.59375 12414.414062 16651.289062 12327.109375 C 16563.90625 12239.6875 16422.1875 12239.6875 16334.882812 12327.109375 C 16247.5 12414.414062 16247.5 12556.09375 16334.882812 12643.515625 Z M 16334.882812 12643.515625 " transform="matrix(0.1, 0, 0, -0.1, 0, 2543)"/>
<path fill="none" stroke-width="100" stroke-linecap="butt" stroke-linejoin="miter" stroke="rgb(45.344543%, 45.887756%, 46.455383%)" stroke-opacity="1" stroke-miterlimit="10" d="M 13121.210938 7939.21875 C 13208.59375 8026.601562 13350.195312 8026.601562 13437.617188 7939.21875 C 13525 7851.914062 13525 7710.195312 13437.617188 7622.8125 C 13350.195312 7535.390625 13208.59375 7535.390625 13121.210938 7622.8125 C 13033.789062 7710.195312 13033.789062 7851.914062 13121.210938 7939.21875 Z M 13121.210938 7939.21875 " transform="matrix(0.1, 0, 0, -0.1, 0, 2543)"/>
<path fill="none" stroke-width="100" stroke-linecap="butt" stroke-linejoin="miter" stroke="rgb(45.344543%, 45.887756%, 46.455383%)" stroke-opacity="1" stroke-miterlimit="10" d="M 9122.070312 7297.8125 C 9209.453125 7385.117188 9351.09375 7385.117188 9438.476562 7297.8125 C 9525.859375 7210.390625 9525.859375 7068.710938 9438.476562 6981.40625 C 9351.09375 6893.984375 9209.453125 6893.984375 9122.070312 6981.40625 C 9034.6875 7068.710938 9034.6875 7210.390625 9122.070312 7297.8125 Z M 9122.070312 7297.8125 " transform="matrix(0.1, 0, 0, -0.1, 0, 2543)"/>
<path fill="none" stroke-width="100" stroke-linecap="butt" stroke-linejoin="miter" stroke="rgb(45.344543%, 45.887756%, 46.455383%)" stroke-opacity="1" stroke-miterlimit="10" d="M 3422.34375 7959.21875 C 3509.726562 8046.601562 3651.367188 8046.601562 3738.75 7959.21875 C 3826.132812 7871.914062 3826.132812 7730.195312 3738.75 7642.8125 C 3651.367188 7555.390625 3509.726562 7555.390625 3422.34375 7642.8125 C 3334.960938 7730.195312 3334.960938 7871.914062 3422.34375 7959.21875 Z M 3422.34375 7959.21875 " transform="matrix(0.1, 0, 0, -0.1, 0, 2543)"/>
<path fill="none" stroke-width="100" stroke-linecap="butt" stroke-linejoin="miter" stroke="rgb(45.344543%, 45.887756%, 46.455383%)" stroke-opacity="1" stroke-miterlimit="10" d="M 1474.570312 9562.8125 C 1561.953125 9650.195312 1703.59375 9650.195312 1790.976562 9562.8125 C 1878.359375 9475.390625 1878.359375 9333.789062 1790.976562 9246.40625 C 1703.59375 9158.984375 1561.953125 9158.984375 1474.570312 9246.40625 C 1387.1875 9333.789062 1387.1875 9475.390625 1474.570312 9562.8125 Z M 1474.570312 9562.8125 " transform="matrix(0.1, 0, 0, -0.1, 0, 2543)"/>
<path fill="none" stroke-width="100" stroke-linecap="butt" stroke-linejoin="miter" stroke="rgb(45.344543%, 45.887756%, 46.455383%)" stroke-opacity="1" stroke-miterlimit="10" d="M 12770.585938 12419.6875 C 12858.007812 12507.109375 12999.6875 12507.109375 13087.109375 12419.6875 C 13174.414062 12332.382812 13174.414062 12190.703125 13087.109375 12103.28125 C 12999.6875 12015.898438 12858.007812 12015.898438 12770.585938 12103.28125 C 12683.28125 12190.703125 12683.28125 12332.382812 12770.585938 12419.6875 Z M 12770.585938 12419.6875 " transform="matrix(0.1, 0, 0, -0.1, 0, 2543)"/>
<path fill="none" stroke-width="100" stroke-linecap="butt" stroke-linejoin="miter" stroke="rgb(45.344543%, 45.887756%, 46.455383%)" stroke-opacity="1" stroke-miterlimit="10" d="M 12511.914062 13900.117188 C 12599.296875 13987.5 12741.015625 13987.5 12828.28125 13900.117188 C 12915.703125 13812.695312 12915.703125 13671.09375 12828.28125 13583.710938 C 12741.015625 13496.289062 12599.296875 13496.289062 12511.914062 13583.710938 C 12424.609375 13671.09375 12424.609375 13812.695312 12511.914062 13900.117188 Z M 12511.914062 13900.117188 " transform="matrix(0.1, 0, 0, -0.1, 0, 2543)"/>
<path fill="none" stroke-width="100" stroke-linecap="butt" stroke-linejoin="miter" stroke="rgb(45.344543%, 45.887756%, 46.455383%)" stroke-opacity="1" stroke-miterlimit="10" d="M 9363.59375 13448.398438 C 9450.976562 13535.78125 9592.617188 13535.78125 9680 13448.398438 C 9767.382812 13361.09375 9767.382812 13219.414062 9680 13131.992188 C 9592.617188 13044.6875 9450.976562 13044.6875 9363.59375 13131.992188 C 9276.210938 13219.414062 9276.210938 13361.09375 9363.59375 13448.398438 Z M 9363.59375 13448.398438 " transform="matrix(0.1, 0, 0, -0.1, 0, 2543)"/>
<path fill="none" stroke-width="100" stroke-linecap="butt" stroke-linejoin="miter" stroke="rgb(45.344543%, 45.887756%, 46.455383%)" stroke-opacity="1" stroke-miterlimit="10" d="M 7605.703125 11334.804688 C 7693.085938 11422.1875 7834.726562 11422.1875 7922.109375 11334.804688 C 8009.492188 11247.382812 8009.492188 11105.78125 7922.109375 11018.398438 C 7834.726562 10931.015625 7693.085938 10931.015625 7605.703125 11018.398438 C 7518.320312 11105.78125 7518.320312 11247.382812 7605.703125 11334.804688 Z M 7605.703125 11334.804688 " transform="matrix(0.1, 0, 0, -0.1, 0, 2543)"/>
<path fill="none" stroke-width="100" stroke-linecap="butt" stroke-linejoin="miter" stroke="rgb(45.344543%, 45.887756%, 46.455383%)" stroke-opacity="1" stroke-miterlimit="10" d="M 4552.8125 16139.492188 C 4640.195312 16226.914062 4781.835938 16226.914062 4869.21875 16139.492188 C 4956.601562 16052.109375 4956.601562 15910.507812 4869.21875 15823.085938 C 4781.835938 15735.703125 4640.195312 15735.703125 4552.8125 15823.085938 C 4465.429688 15910.507812 4465.429688 16052.109375 4552.8125 16139.492188 Z M 4552.8125 16139.492188 " transform="matrix(0.1, 0, 0, -0.1, 0, 2543)"/>
<path fill="none" stroke-width="100" stroke-linecap="butt" stroke-linejoin="miter" stroke="rgb(45.344543%, 45.887756%, 46.455383%)" stroke-opacity="1" stroke-miterlimit="10" d="M 5363.320312 13606.484375 C 5450.703125 13693.789062 5592.34375 13693.789062 5679.726562 13606.484375 C 5767.109375 13519.101562 5767.109375 13377.382812 5679.726562 13290 C 5592.34375 13202.695312 5450.703125 13202.695312 5363.320312 13290.117188 C 5275.9375 13377.382812 5275.9375 13519.101562 5363.320312 13606.484375 Z M 5363.320312 13606.484375 " transform="matrix(0.1, 0, 0, -0.1, 0, 2543)"/>
<path fill="none" stroke-width="100" stroke-linecap="butt" stroke-linejoin="miter" stroke="rgb(45.344543%, 45.887756%, 46.455383%)" stroke-opacity="1" stroke-miterlimit="10" d="M 6474.414062 8837.8125 C 6561.796875 8925.195312 6703.4375 8925.195312 6790.820312 8837.8125 C 6878.203125 8750.390625 6878.203125 8608.789062 6790.820312 8521.40625 C 6703.4375 8433.984375 6561.796875 8433.984375 6474.414062 8521.40625 C 6387.03125 8608.789062 6387.03125 8750.390625 6474.414062 8837.8125 Z M 6474.414062 8837.8125 " transform="matrix(0.1, 0, 0, -0.1, 0, 2543)"/>
<path fill="none" stroke-width="100" stroke-linecap="butt" stroke-linejoin="miter" stroke="rgb(45.344543%, 45.887756%, 46.455383%)" stroke-opacity="1" stroke-miterlimit="10" d="M 19655.117188 14512.695312 C 19742.382812 14600.117188 19884.101562 14600.117188 19971.484375 14512.695312 C 20058.789062 14425.3125 20058.789062 14283.710938 19971.484375 14196.289062 C 19884.101562 14108.90625 19742.382812 14108.90625 19655.117188 14196.289062 C 19567.695312 14283.710938 19567.695312 14425.3125 19655.117188 14512.695312 Z M 19655.117188 14512.695312 " transform="matrix(0.1, 0, 0, -0.1, 0, 2543)"/>
<path fill="none" stroke-width="100" stroke-linecap="butt" stroke-linejoin="miter" stroke="rgb(45.344543%, 45.887756%, 46.455383%)" stroke-opacity="1" stroke-miterlimit="10" d="M 29371.914062 12026.210938 L 28194.882812 13203.203125 L 25468.007812 13203.203125 " transform="matrix(0.1, 0, 0, -0.1, 0, 2543)"/>
<path fill="none" stroke-width="100" stroke-linecap="butt" stroke-linejoin="miter" stroke="rgb(45.344543%, 45.887756%, 46.455383%)" stroke-opacity="1" stroke-miterlimit="10" d="M 16493.085938 11544.101562 L 17735.585938 11544.101562 L 18281.484375 12089.882812 L 18281.484375 13066.484375 " transform="matrix(0.1, 0, 0, -0.1, 0, 2543)"/>
<path fill="none" stroke-width="100" stroke-linecap="butt" stroke-linejoin="miter" stroke="rgb(45.344543%, 45.887756%, 46.455383%)" stroke-opacity="1" stroke-miterlimit="10" d="M 4068.59375 10148.789062 L 3324.414062 9404.609375 L 1881.367188 9404.609375 " transform="matrix(0.1, 0, 0, -0.1, 0, 2543)"/>
<path fill="none" stroke-width="100" stroke-linecap="butt" stroke-linejoin="miter" stroke="rgb(45.344543%, 45.887756%, 46.455383%)" stroke-opacity="1" stroke-miterlimit="10" d="M 5688.125 15339.21875 L 7094.0625 13933.28125 L 7094.0625 11819.101562 " transform="matrix(0.1, 0, 0, -0.1, 0, 2543)"/>
<path fill="none" stroke-width="100" stroke-linecap="butt" stroke-linejoin="miter" stroke="rgb(45.344543%, 45.887756%, 46.455383%)" stroke-opacity="1" stroke-miterlimit="10" d="M 27749.414062 11360.117188 L 25339.414062 11360.117188 L 24689.492188 12010 L 22134.609375 12010 " transform="matrix(0.1, 0, 0, -0.1, 0, 2543)"/>
<path fill="none" stroke-width="100" stroke-linecap="butt" stroke-linejoin="miter" stroke="rgb(45.344543%, 45.887756%, 46.455383%)" stroke-opacity="1" stroke-miterlimit="10" d="M 25835.703125 8903.28125 L 24755.117188 7822.8125 " transform="matrix(0.1, 0, 0, -0.1, 0, 2543)"/>
<path fill="none" stroke-width="100" stroke-linecap="butt" stroke-linejoin="miter" stroke="rgb(45.344543%, 45.887756%, 46.455383%)" stroke-opacity="1" stroke-miterlimit="10" d="M 19561.484375 10366.601562 L 16655.703125 10366.601562 L 14971.992188 8682.890625 " transform="matrix(0.1, 0, 0, -0.1, 0, 2543)"/>
<path fill="none" stroke-width="100" stroke-linecap="butt" stroke-linejoin="miter" stroke="rgb(45.344543%, 45.887756%, 46.455383%)" stroke-opacity="1" stroke-miterlimit="10" d="M 16513.085938 13410.117188 L 17053.085938 13950.117188 L 19058.789062 13950.117188 " transform="matrix(0.1, 0, 0, -0.1, 0, 2543)"/>
<g clip-path="url(#clip-5)">
<path fill="none" stroke-width="100" stroke-linecap="butt" stroke-linejoin="miter" stroke="rgb(45.344543%, 45.887756%, 46.455383%)" stroke-opacity="1" stroke-miterlimit="10" d="M 33397.890625 13950.117188 L 36288.203125 11059.804688 " transform="matrix(0.1, 0, 0, -0.1, 0, 2543)"/>
</g>
<path fill="none" stroke-width="100" stroke-linecap="butt" stroke-linejoin="miter" stroke="rgb(45.344543%, 45.887756%, 46.455383%)" stroke-opacity="1" stroke-miterlimit="10" d="M 26245.117188 9764.882812 L 23144.296875 9764.882812 L 22734.492188 9355.117188 " transform="matrix(0.1, 0, 0, -0.1, 0, 2543)"/>
<path fill="none" stroke-width="100" stroke-linecap="butt" stroke-linejoin="miter" stroke="rgb(45.344543%, 45.887756%, 46.455383%)" stroke-opacity="1" stroke-miterlimit="10" d="M 18281.484375 11558.984375 L 20392.5 11558.984375 L 21378.398438 12544.882812 " transform="matrix(0.1, 0, 0, -0.1, 0, 2543)"/>
<path fill="none" stroke-width="100" stroke-linecap="butt" stroke-linejoin="miter" stroke="rgb(45.344543%, 45.887756%, 46.455383%)" stroke-opacity="1" stroke-miterlimit="10" d="M 9521.796875 12256.210938 L 8460.039062 11194.414062 L 7968.164062 11194.414062 " transform="matrix(0.1, 0, 0, -0.1, 0, 2543)"/>
<path fill="none" stroke-width="100" stroke-linecap="butt" stroke-linejoin="miter" stroke="rgb(45.344543%, 45.887756%, 46.455383%)" stroke-opacity="1" stroke-miterlimit="10" d="M 7763.90625 13520 L 7763.90625 12305.3125 " transform="matrix(0.1, 0, 0, -0.1, 0, 2543)"/>
<path fill="none" stroke-width="100" stroke-linecap="butt" stroke-linejoin="miter" stroke="rgb(45.344543%, 45.887756%, 46.455383%)" stroke-opacity="1" stroke-miterlimit="10" d="M 34323.789062 14525 L 34918.28125 13930.507812 " transform="matrix(0.1, 0, 0, -0.1, 0, 2543)"/>
</svg>
