<?xml version="1.0" encoding="UTF-8"?>
<svg xmlns="http://www.w3.org/2000/svg" width="48" height="48" viewBox="0 0 48 48">
  <!-- Brain-Circuit Logo -->
  <g fill="none" stroke="#00ffff" stroke-width="2" stroke-linecap="round" stroke-linejoin="round">
    <!-- Brain outline (left side) -->
    <path d="M 6 18 Q 6 10 10 6 Q 14 2 18 4 Q 22 6 24 10 Q 26 14 24 18 Q 22 22 18 24 Q 14 26 10 24 Q 6 22 6 18 Z" />
    <path d="M 10 6 Q 14 4 18 6 Q 22 8 24 12 Q 26 16 24 20 Q 22 24 18 26 Q 14 28 10 26 Q 6 24 6 20 Z" />
    
    <!-- Circuit board elements (right side) -->
    <path d="M 24 10 L 30 10 L 34 14 L 38 14" />
    <path d="M 24 18 L 30 18 L 34 22 L 38 22" />
    <path d="M 24 26 L 30 26 L 34 30 L 38 30" />
    
    <!-- Circuit nodes -->
    <circle cx="30" cy="10" r="1.5" fill="#00ffff" />
    <circle cx="30" cy="18" r="1.5" fill="#00ffff" />
    <circle cx="30" cy="26" r="1.5" fill="#00ffff" />
    <circle cx="38" cy="14" r="1.5" fill="#00ffff" />
    <circle cx="38" cy="22" r="1.5" fill="#00ffff" />
    <circle cx="38" cy="30" r="1.5" fill="#00ffff" />
    
    <!-- Connection lines -->
    <path d="M 18 14 L 24 14" />
    <path d="M 18 22 L 24 22" />
    <path d="M 18 30 L 24 30" />
  </g>
  
  <!-- <U> text in center -->
  <text x="24" y="20" text-anchor="middle" font-family="monospace" font-size="6" font-weight="bold" fill="#00ffff">
    &lt;U&gt;
  </text>
</svg>
