<?xml version="1.0" encoding="UTF-8"?>
<svg xmlns="http://www.w3.org/2000/svg" xmlns:xlink="http://www.w3.org/1999/xlink" width="2100" height="2100" viewBox="0 0 2100 2100">
<path fill-rule="evenodd" fill="rgb(100%, 100%, 100%)" fill-opacity="1" d="M 2096.011719 0 L -3.996094 0 L -3.996094 2100 L 2096.011719 2100 L 2096.011719 0 "/>
<path fill="none" stroke-width="102.19" stroke-linecap="round" stroke-linejoin="round" stroke="rgb(0%, 0%, 0%)" stroke-opacity="1" stroke-miterlimit="10" d="M 14009.804688 887.734375 L 14038.710938 3555.664062 L 2172.382812 15421.992188 L 2172.382812 16078.203125 L 540.820312 17709.6875 " transform="matrix(0.1, 0, 0, -0.1, 0, 2100)"/>
<path fill="none" stroke-width="102.19" stroke-linecap="round" stroke-linejoin="round" stroke="rgb(0%, 0%, 0%)" stroke-opacity="1" stroke-miterlimit="10" d="M 14466.40625 1340.585938 L 14466.40625 3705.976562 L 2600.15625 15572.304688 L 2600.15625 16228.515625 L 1812.578125 17016.015625 " transform="matrix(0.1, 0, 0, -0.1, 0, 2100)"/>
<path fill="none" stroke-width="102.19" stroke-linecap="round" stroke-linejoin="round" stroke="rgb(0%, 0%, 0%)" stroke-opacity="1" stroke-miterlimit="10" d="M 14894.21875 1768.359375 L 14894.21875 3856.289062 L 3027.890625 15722.617188 L 3027.890625 16378.789062 L 2500.46875 16906.210938 " transform="matrix(0.1, 0, 0, -0.1, 0, 2100)"/>
<path fill="none" stroke-width="102.19" stroke-linecap="round" stroke-linejoin="round" stroke="rgb(0%, 0%, 0%)" stroke-opacity="1" stroke-miterlimit="10" d="M 15321.992188 2196.132812 L 15321.992188 4006.5625 L 3455.664062 15872.890625 L 3455.664062 16529.101562 L 2390.625 17594.101562 " transform="matrix(0.1, 0, 0, -0.1, 0, 2100)"/>
<path fill="none" stroke-width="102.19" stroke-linecap="round" stroke-linejoin="round" stroke="rgb(0%, 0%, 0%)" stroke-opacity="1" stroke-miterlimit="10" d="M 495.15625 17670 C 475.625 17650.390625 443.90625 17650.390625 424.375 17670 L 353.59375 17740.78125 C 334.0625 17760.3125 334.0625 17791.992188 353.59375 17811.484375 L 424.375 17882.304688 C 443.90625 17901.914062 475.625 17901.914062 495.15625 17882.304688 L 565.9375 17811.484375 C 585.46875 17791.992188 585.46875 17760.3125 565.9375 17740.78125 Z M 495.15625 17670 " transform="matrix(0.1, 0, 0, -0.1, 0, 2100)"/>
<path fill="none" stroke-width="102.19" stroke-linecap="round" stroke-linejoin="round" stroke="rgb(0%, 0%, 0%)" stroke-opacity="1" stroke-miterlimit="10" d="M 1777.1875 16980.585938 C 1757.65625 16961.09375 1725.9375 16961.09375 1706.367188 16980.585938 L 1635.585938 17051.40625 C 1616.054688 17071.015625 1616.054688 17102.695312 1635.585938 17122.1875 L 1706.367188 17193.007812 C 1725.9375 17212.5 1757.65625 17212.5 1777.1875 17193.007812 L 1847.96875 17122.1875 C 1867.5 17102.695312 1867.5 17071.015625 1847.96875 17051.40625 Z M 1777.1875 16980.585938 " transform="matrix(0.1, 0, 0, -0.1, 0, 2100)"/>
<path fill="none" stroke-width="102.19" stroke-linecap="round" stroke-linejoin="round" stroke="rgb(0%, 0%, 0%)" stroke-opacity="1" stroke-miterlimit="10" d="M 13959.804688 683.710938 C 13932.1875 683.710938 13909.6875 706.132812 13909.6875 733.75 L 13909.6875 833.867188 C 13909.6875 861.484375 13932.1875 883.90625 13959.804688 883.90625 L 14059.882812 883.90625 C 14087.5 883.90625 14109.882812 861.484375 14109.882812 833.867188 L 14109.882812 733.75 C 14109.882812 706.132812 14087.5 683.710938 14059.882812 683.710938 Z M 13959.804688 683.710938 " transform="matrix(0.1, 0, 0, -0.1, 0, 2100)"/>
<path fill="none" stroke-width="102.19" stroke-linecap="round" stroke-linejoin="round" stroke="rgb(0%, 0%, 0%)" stroke-opacity="1" stroke-miterlimit="10" d="M 14416.484375 1140.390625 C 14388.789062 1140.390625 14366.40625 1162.8125 14366.40625 1190.429688 L 14366.40625 1290.546875 C 14366.40625 1318.164062 14388.789062 1340.585938 14416.484375 1340.585938 L 14516.601562 1340.585938 C 14544.21875 1340.585938 14566.601562 1318.164062 14566.601562 1290.546875 L 14566.601562 1190.429688 C 14566.601562 1162.8125 14544.21875 1140.390625 14516.601562 1140.390625 Z M 14416.484375 1140.390625 " transform="matrix(0.1, 0, 0, -0.1, 0, 2100)"/>
<path fill="none" stroke-width="102.19" stroke-linecap="round" stroke-linejoin="round" stroke="rgb(0%, 0%, 0%)" stroke-opacity="1" stroke-miterlimit="10" d="M 14844.21875 1568.164062 C 14816.601562 1568.164062 14794.21875 1590.585938 14794.21875 1618.203125 L 14794.21875 1718.320312 C 14794.21875 1745.9375 14816.601562 1768.359375 14844.21875 1768.359375 L 14944.414062 1768.359375 C 14971.992188 1768.359375 14994.414062 1745.9375 14994.414062 1718.320312 L 14994.414062 1618.203125 C 14994.414062 1590.585938 14971.992188 1568.164062 14944.414062 1568.164062 Z M 14844.21875 1568.164062 " transform="matrix(0.1, 0, 0, -0.1, 0, 2100)"/>
<path fill="none" stroke-width="102.19" stroke-linecap="round" stroke-linejoin="round" stroke="rgb(0%, 0%, 0%)" stroke-opacity="1" stroke-miterlimit="10" d="M 15271.992188 1995.9375 C 15244.414062 1995.9375 15221.992188 2018.359375 15221.992188 2045.976562 L 15221.992188 2146.09375 C 15221.992188 2173.710938 15244.414062 2196.132812 15271.992188 2196.132812 L 15372.109375 2196.132812 C 15399.804688 2196.132812 15422.1875 2173.710938 15422.1875 2146.09375 L 15422.1875 2045.976562 C 15422.1875 2018.359375 15399.804688 1995.9375 15372.109375 1995.9375 Z M 15271.992188 1995.9375 " transform="matrix(0.1, 0, 0, -0.1, 0, 2100)"/>
<path fill="none" stroke-width="102.19" stroke-linecap="round" stroke-linejoin="round" stroke="rgb(0%, 0%, 0%)" stroke-opacity="1" stroke-miterlimit="10" d="M 2465.078125 16870.78125 C 2445.546875 16851.289062 2413.828125 16851.289062 2394.296875 16870.78125 L 2323.515625 16941.601562 C 2303.984375 16961.09375 2303.984375 16992.8125 2323.515625 17012.382812 L 2394.296875 17083.203125 C 2413.828125 17102.695312 2445.546875 17102.695312 2465.078125 17083.203125 L 2535.859375 17012.382812 C 2555.390625 16992.8125 2555.390625 16961.09375 2535.859375 16941.601562 Z M 2465.078125 16870.78125 " transform="matrix(0.1, 0, 0, -0.1, 0, 2100)"/>
<path fill="none" stroke-width="102.19" stroke-linecap="round" stroke-linejoin="round" stroke="rgb(0%, 0%, 0%)" stroke-opacity="1" stroke-miterlimit="10" d="M 2355.234375 17558.710938 C 2335.703125 17539.21875 2303.984375 17539.21875 2284.453125 17558.710938 L 2213.671875 17629.492188 C 2194.140625 17648.984375 2194.140625 17680.78125 2213.671875 17700.3125 L 2284.453125 17771.09375 C 2303.984375 17790.585938 2335.703125 17790.585938 2355.234375 17771.09375 L 2426.015625 17700.3125 C 2445.546875 17680.78125 2445.546875 17648.984375 2426.015625 17629.492188 Z M 2355.234375 17558.710938 " transform="matrix(0.1, 0, 0, -0.1, 0, 2100)"/>
<path fill="none" stroke-width="102.19" stroke-linecap="round" stroke-linejoin="round" stroke="rgb(0%, 0%, 0%)" stroke-opacity="1" stroke-miterlimit="10" d="M 25339.804688 -7700.898438 L 25368.710938 -5032.96875 L 13502.382812 6833.28125 L 13502.382812 7489.492188 L 11870.898438 9121.054688 " transform="matrix(0.1, 0, 0, -0.1, 0, 2100)"/>
<path fill="none" stroke-width="102.19" stroke-linecap="round" stroke-linejoin="round" stroke="rgb(0%, 0%, 0%)" stroke-opacity="1" stroke-miterlimit="10" d="M 25796.484375 -7248.046875 L 25796.484375 -4882.695312 L 13930.195312 6983.59375 L 13930.195312 7639.804688 L 13142.617188 8427.382812 " transform="matrix(0.1, 0, 0, -0.1, 0, 2100)"/>
<path fill="none" stroke-width="102.19" stroke-linecap="round" stroke-linejoin="round" stroke="rgb(0%, 0%, 0%)" stroke-opacity="1" stroke-miterlimit="10" d="M 26224.296875 -6820.273438 L 26224.296875 -4732.382812 L 14358.007812 7133.90625 L 14358.007812 7790.117188 L 13830.507812 8317.539062 " transform="matrix(0.1, 0, 0, -0.1, 0, 2100)"/>
<path fill="none" stroke-width="102.19" stroke-linecap="round" stroke-linejoin="round" stroke="rgb(0%, 0%, 0%)" stroke-opacity="1" stroke-miterlimit="10" d="M 26651.992188 -6392.5 L 26651.992188 -4582.109375 L 14785.703125 7284.179688 L 14785.703125 7940.390625 L 13720.703125 9005.46875 " transform="matrix(0.1, 0, 0, -0.1, 0, 2100)"/>
<path fill="none" stroke-width="102.19" stroke-linecap="round" stroke-linejoin="round" stroke="rgb(0%, 0%, 0%)" stroke-opacity="1" stroke-miterlimit="10" d="M 11825.195312 9081.289062 C 11805.703125 9061.757812 11773.984375 9061.757812 11754.414062 9081.289062 L 11683.59375 9152.109375 C 11664.101562 9171.640625 11664.101562 9203.359375 11683.59375 9222.890625 L 11754.414062 9293.671875 C 11773.984375 9313.203125 11805.703125 9313.203125 11825.195312 9293.671875 L 11896.015625 9222.890625 C 11915.507812 9203.359375 11915.507812 9171.640625 11896.015625 9152.109375 Z M 11825.195312 9081.289062 " transform="matrix(0.1, 0, 0, -0.1, 0, 2100)"/>
<path fill="none" stroke-width="102.19" stroke-linecap="round" stroke-linejoin="round" stroke="rgb(0%, 0%, 0%)" stroke-opacity="1" stroke-miterlimit="10" d="M 13107.1875 8391.992188 C 13087.695312 8372.460938 13056.015625 8372.460938 13036.40625 8391.992188 L 12965.585938 8462.773438 C 12946.09375 8482.304688 12946.09375 8514.023438 12965.585938 8533.554688 L 13036.40625 8604.335938 C 13056.015625 8623.867188 13087.695312 8623.867188 13107.1875 8604.335938 L 13178.007812 8533.554688 C 13197.617188 8514.023438 13197.617188 8482.304688 13178.007812 8462.773438 Z M 13107.1875 8391.992188 " transform="matrix(0.1, 0, 0, -0.1, 0, 2100)"/>
<path fill="none" stroke-width="102.19" stroke-linecap="round" stroke-linejoin="round" stroke="rgb(0%, 0%, 0%)" stroke-opacity="1" stroke-miterlimit="10" d="M 13795.117188 8282.148438 C 13775.585938 8262.617188 13743.90625 8262.617188 13724.296875 8282.148438 L 13653.59375 8352.929688 C 13633.984375 8372.460938 13633.984375 8404.179688 13653.59375 8423.710938 L 13724.296875 8494.492188 C 13743.90625 8514.023438 13775.585938 8514.023438 13795.117188 8494.492188 L 13865.898438 8423.710938 C 13885.390625 8404.179688 13885.390625 8372.460938 13865.898438 8352.929688 Z M 13795.117188 8282.148438 " transform="matrix(0.1, 0, 0, -0.1, 0, 2100)"/>
<path fill="none" stroke-width="102.19" stroke-linecap="round" stroke-linejoin="round" stroke="rgb(0%, 0%, 0%)" stroke-opacity="1" stroke-miterlimit="10" d="M 13685.3125 8970.039062 C 13665.78125 8950.507812 13633.984375 8950.507812 13614.492188 8970.039062 L 13543.710938 9040.859375 C 13524.21875 9060.351562 13524.21875 9092.109375 13543.710938 9111.640625 L 13614.492188 9182.421875 C 13633.984375 9201.953125 13665.78125 9201.953125 13685.3125 9182.421875 L 13756.09375 9111.640625 C 13775.585938 9092.109375 13775.585938 9060.351562 13756.09375 9040.859375 Z M 13685.3125 8970.039062 " transform="matrix(0.1, 0, 0, -0.1, 0, 2100)"/>
<path fill="none" stroke-width="102.19" stroke-linecap="round" stroke-linejoin="round" stroke="rgb(0%, 0%, 0%)" stroke-opacity="1" stroke-miterlimit="10" d="M -839.648438 19280.3125 L -868.554688 16612.304688 L 10997.695312 4746.054688 L 10997.695312 4089.84375 L 12629.296875 2458.28125 " transform="matrix(0.1, 0, 0, -0.1, 0, 2100)"/>
<path fill="none" stroke-width="102.19" stroke-linecap="round" stroke-linejoin="round" stroke="rgb(0%, 0%, 0%)" stroke-opacity="1" stroke-miterlimit="10" d="M -1296.328125 18827.382812 L -1296.328125 16461.992188 L 10570 4595.742188 L 10570 3939.53125 L 11357.5 3151.953125 " transform="matrix(0.1, 0, 0, -0.1, 0, 2100)"/>
<path fill="none" stroke-width="102.19" stroke-linecap="round" stroke-linejoin="round" stroke="rgb(0%, 0%, 0%)" stroke-opacity="1" stroke-miterlimit="10" d="M -1724.101562 18399.609375 L -1724.101562 16311.71875 L 10142.1875 4445.46875 L 10142.1875 3789.257812 L 10669.609375 3261.796875 " transform="matrix(0.1, 0, 0, -0.1, 0, 2100)"/>
<path fill="none" stroke-width="102.19" stroke-linecap="round" stroke-linejoin="round" stroke="rgb(0%, 0%, 0%)" stroke-opacity="1" stroke-miterlimit="10" d="M -2151.875 17971.914062 L -2151.875 16161.40625 L 9714.414062 4295.15625 L 9714.414062 3638.945312 L 10779.492188 2573.90625 " transform="matrix(0.1, 0, 0, -0.1, 0, 2100)"/>
<path fill="none" stroke-width="102.19" stroke-linecap="round" stroke-linejoin="round" stroke="rgb(0%, 0%, 0%)" stroke-opacity="1" stroke-miterlimit="10" d="M 12674.882812 2498.046875 C 12694.492188 2517.578125 12726.210938 2517.578125 12745.703125 2498.046875 L 12816.484375 2427.265625 C 12836.015625 2407.734375 12836.015625 2376.015625 12816.484375 2356.484375 L 12745.703125 2285.664062 C 12726.210938 2266.132812 12694.492188 2266.132812 12674.882812 2285.664062 L 12604.21875 2356.484375 C 12584.609375 2376.015625 12584.609375 2407.734375 12604.21875 2427.265625 Z M 12674.882812 2498.046875 " transform="matrix(0.1, 0, 0, -0.1, 0, 2100)"/>
<path fill="none" stroke-width="102.19" stroke-linecap="round" stroke-linejoin="round" stroke="rgb(0%, 0%, 0%)" stroke-opacity="1" stroke-miterlimit="10" d="M 11392.890625 3187.382812 C 11412.5 3206.914062 11444.21875 3206.914062 11463.710938 3187.382812 L 11534.492188 3116.5625 C 11553.984375 3097.03125 11553.984375 3065.3125 11534.492188 3045.78125 L 11463.710938 2975 C 11444.21875 2955.46875 11412.5 2955.46875 11392.890625 2975 L 11322.109375 3045.78125 C 11302.617188 3065.3125 11302.617188 3097.03125 11322.109375 3116.5625 Z M 11392.890625 3187.382812 " transform="matrix(0.1, 0, 0, -0.1, 0, 2100)"/>
<path fill="none" stroke-width="102.19" stroke-linecap="round" stroke-linejoin="round" stroke="rgb(0%, 0%, 0%)" stroke-opacity="1" stroke-miterlimit="10" d="M 10705 3297.1875 C 10724.609375 3316.71875 10756.289062 3316.71875 10775.78125 3297.1875 L 10846.601562 3226.40625 C 10866.09375 3206.875 10866.09375 3175.15625 10846.601562 3155.625 L 10775.78125 3084.84375 C 10756.289062 3065.3125 10724.609375 3065.3125 10705 3084.84375 L 10634.21875 3155.625 C 10614.6875 3175.15625 10614.6875 3206.875 10634.21875 3226.40625 Z M 10705 3297.1875 " transform="matrix(0.1, 0, 0, -0.1, 0, 2100)"/>
<path fill="none" stroke-width="102.19" stroke-linecap="round" stroke-linejoin="round" stroke="rgb(0%, 0%, 0%)" stroke-opacity="1" stroke-miterlimit="10" d="M 10814.882812 2609.296875 C 10834.414062 2628.828125 10866.09375 2628.828125 10885.585938 2609.296875 L 10956.40625 2538.515625 C 10976.015625 2518.984375 10976.015625 2487.265625 10956.40625 2467.734375 L 10885.585938 2396.953125 C 10866.09375 2377.382812 10834.414062 2377.382812 10814.882812 2396.953125 L 10744.101562 2467.734375 C 10724.492188 2487.265625 10724.492188 2518.984375 10744.101562 2538.515625 Z M 10814.882812 2609.296875 " transform="matrix(0.1, 0, 0, -0.1, 0, 2100)"/>
<path fill="none" stroke-width="102.19" stroke-linecap="round" stroke-linejoin="round" stroke="rgb(0%, 0%, 0%)" stroke-opacity="1" stroke-miterlimit="10" d="M -3285.859375 17505.507812 L -1421.210938 19411.015625 L 2463.984375 19411.015625 L 3495.742188 18379.21875 L 3495.742188 17622.1875 " transform="matrix(0.1, 0, 0, -0.1, 0, 2100)"/>
<path fill="none" stroke-width="102.19" stroke-linecap="round" stroke-linejoin="round" stroke="rgb(0%, 0%, 0%)" stroke-opacity="1" stroke-miterlimit="10" d="M -3288.554688 18148.085938 L -1617.265625 19819.414062 L 2872.421875 19819.414062 L 3904.179688 18787.695312 L 3904.179688 16531.40625 " transform="matrix(0.1, 0, 0, -0.1, 0, 2100)"/>
<path fill="none" stroke-width="102.19" stroke-linecap="round" stroke-linejoin="round" stroke="rgb(0%, 0%, 0%)" stroke-opacity="1" stroke-miterlimit="10" d="M -3288.554688 18752.617188 L -1813.320312 20227.890625 L 3280.859375 20227.890625 L 4312.617188 19196.09375 L 4312.617188 18334.609375 L 5011.757812 17635.507812 " transform="matrix(0.1, 0, 0, -0.1, 0, 2100)"/>
<path fill="none" stroke-width="102.19" stroke-linecap="round" stroke-linejoin="round" stroke="rgb(0%, 0%, 0%)" stroke-opacity="1" stroke-miterlimit="10" d="M -3288.554688 19357.109375 L -2009.375 20636.289062 L 3689.296875 20636.289062 L 7377.265625 16948.28125 " transform="matrix(0.1, 0, 0, -0.1, 0, 2100)"/>
<path fill="none" stroke-width="102.19" stroke-linecap="round" stroke-linejoin="round" stroke="rgb(0%, 0%, 0%)" stroke-opacity="1" stroke-miterlimit="10" d="M 3545.273438 17420.507812 C 3572.851562 17420.507812 3595.273438 17443.007812 3595.273438 17470.585938 L 3595.273438 17570.585938 C 3595.273438 17598.203125 3572.851562 17620.585938 3545.273438 17620.585938 L 3445.234375 17620.585938 C 3417.617188 17620.585938 3395.234375 17598.203125 3395.234375 17570.585938 L 3395.234375 17470.585938 C 3395.234375 17443.007812 3417.617188 17420.507812 3445.234375 17420.507812 Z M 3545.273438 17420.507812 " transform="matrix(0.1, 0, 0, -0.1, 0, 2100)"/>
<path fill="none" stroke-width="102.19" stroke-linecap="round" stroke-linejoin="round" stroke="rgb(0%, 0%, 0%)" stroke-opacity="1" stroke-miterlimit="10" d="M 3952.851562 16331.289062 C 3980.46875 16331.289062 4002.890625 16353.789062 4002.890625 16381.40625 L 4002.890625 16481.40625 C 4002.890625 16508.984375 3980.46875 16531.40625 3952.851562 16531.40625 L 3852.851562 16531.40625 C 3825.234375 16531.40625 3802.8125 16508.984375 3802.8125 16481.40625 L 3802.8125 16381.40625 C 3802.8125 16353.789062 3825.234375 16331.289062 3852.851562 16331.289062 Z M 3952.851562 16331.289062 " transform="matrix(0.1, 0, 0, -0.1, 0, 2100)"/>
<path fill="none" stroke-width="102.19" stroke-linecap="round" stroke-linejoin="round" stroke="rgb(0%, 0%, 0%)" stroke-opacity="1" stroke-miterlimit="10" d="M 5046.289062 17457.890625 C 5065.820312 17438.28125 5097.5 17438.28125 5117.03125 17457.890625 L 5187.734375 17528.59375 C 5207.265625 17548.085938 5207.265625 17579.804688 5187.734375 17599.296875 L 5117.03125 17670.117188 C 5097.5 17689.609375 5065.820312 17689.609375 5046.289062 17670.117188 L 4975.546875 17599.296875 C 4956.054688 17579.804688 4956.054688 17548.085938 4975.546875 17528.59375 Z M 5046.289062 17457.890625 " transform="matrix(0.1, 0, 0, -0.1, 0, 2100)"/>
<path fill="none" stroke-width="102.19" stroke-linecap="round" stroke-linejoin="round" stroke="rgb(0%, 0%, 0%)" stroke-opacity="1" stroke-miterlimit="10" d="M 7412.617188 16771.484375 C 7432.148438 16751.992188 7463.828125 16751.992188 7483.359375 16771.484375 L 7554.101562 16842.1875 C 7573.59375 16861.796875 7573.59375 16893.398438 7554.101562 16913.007812 L 7483.359375 16983.710938 C 7463.828125 17003.203125 7432.148438 17003.203125 7412.617188 16983.710938 L 7341.875 16913.007812 C 7322.382812 16893.398438 7322.382812 16861.796875 7341.875 16842.1875 Z M 7412.617188 16771.484375 " transform="matrix(0.1, 0, 0, -0.1, 0, 2100)"/>
<path fill="none" stroke-width="102.19" stroke-linecap="round" stroke-linejoin="round" stroke="rgb(0%, 0%, 0%)" stroke-opacity="1" stroke-miterlimit="10" d="M 5566.679688 17223.007812 C 5547.148438 17242.5 5515.46875 17242.5 5495.9375 17223.007812 L 5425.195312 17152.304688 C 5405.703125 17132.695312 5405.703125 17101.015625 5425.195312 17081.484375 L 5495.9375 17010.78125 C 5515.46875 16991.289062 5547.148438 16991.289062 5566.679688 17010.78125 L 5637.421875 17081.484375 C 5656.914062 17101.015625 5656.914062 17132.695312 5637.421875 17152.304688 Z M 5566.679688 17223.007812 " transform="matrix(0.1, 0, 0, -0.1, 0, 2100)"/>
<path fill="none" stroke-width="102.19" stroke-linecap="round" stroke-linejoin="round" stroke="rgb(0%, 0%, 0%)" stroke-opacity="1" stroke-miterlimit="10" d="M 8885.117188 13904.609375 C 8865.585938 13924.101562 8833.867188 13924.101562 8814.375 13904.609375 L 8743.632812 13833.789062 C 8724.101562 13814.296875 8724.101562 13782.617188 8743.632812 13763.085938 L 8814.375 13692.382812 C 8833.867188 13672.890625 8865.585938 13672.890625 8885.117188 13692.382812 L 8955.820312 13763.085938 C 8975.351562 13782.617188 8975.351562 13814.296875 8955.820312 13833.789062 Z M 8885.117188 13904.609375 " transform="matrix(0.1, 0, 0, -0.1, 0, 2100)"/>
<path fill="none" stroke-width="102.19" stroke-linecap="round" stroke-linejoin="round" stroke="rgb(0%, 0%, 0%)" stroke-opacity="1" stroke-miterlimit="10" d="M 5602.03125 17046.210938 L 8778.984375 13869.21875 " transform="matrix(0.1, 0, 0, -0.1, 0, 2100)"/>
<path fill="none" stroke-width="108.67" stroke-linecap="round" stroke-linejoin="round" stroke="rgb(0%, 0%, 0%)" stroke-opacity="1" stroke-miterlimit="10" d="M 12976.71875 9706.015625 L 11175.78125 11463.398438 " transform="matrix(0.1, 0, 0, -0.1, 0, 2100)"/>
<path fill="none" stroke-width="108.67" stroke-linecap="round" stroke-linejoin="round" stroke="rgb(0%, 0%, 0%)" stroke-opacity="1" stroke-miterlimit="10" d="M 10741.484375 11254.492188 L 10741.484375 14419.492188 L 9644.335938 15516.601562 L 8728.28125 15516.601562 L 7984.84375 16260.117188 " transform="matrix(0.1, 0, 0, -0.1, 0, 2100)"/>
<path fill="none" stroke-width="108.67" stroke-linecap="round" stroke-linejoin="round" stroke="rgb(0%, 0%, 0%)" stroke-opacity="1" stroke-miterlimit="10" d="M 11175.78125 11463.398438 L 11175.78125 14853.789062 L 7254.101562 18775.507812 " transform="matrix(0.1, 0, 0, -0.1, 0, 2100)"/>
<path fill="none" stroke-width="108.67" stroke-linecap="round" stroke-linejoin="round" stroke="rgb(0%, 0%, 0%)" stroke-opacity="1" stroke-miterlimit="10" d="M 7795.9375 16296.796875 C 7775.195312 16317.617188 7775.195312 16351.289062 7795.9375 16371.992188 L 7871.132812 16447.1875 C 7891.914062 16468.007812 7925.625 16468.007812 7946.367188 16447.1875 L 8021.5625 16371.992188 C 8042.34375 16351.289062 8042.34375 16317.617188 8021.5625 16296.796875 L 7946.367188 16221.601562 C 7925.625 16200.78125 7891.914062 16200.78125 7871.132812 16221.601562 Z M 7795.9375 16296.796875 " transform="matrix(0.1, 0, 0, -0.1, 0, 2100)"/>
<path fill="none" stroke-width="108.67" stroke-linecap="round" stroke-linejoin="round" stroke="rgb(0%, 0%, 0%)" stroke-opacity="1" stroke-miterlimit="10" d="M 7066.09375 18813.085938 C 7045.3125 18833.90625 7045.3125 18867.617188 7066.09375 18888.28125 L 7141.289062 18963.515625 C 7162.070312 18984.296875 7195.742188 18984.296875 7216.523438 18963.515625 L 7291.71875 18888.28125 C 7312.5 18867.617188 7312.5 18833.90625 7291.71875 18813.085938 L 7216.523438 18737.890625 C 7195.742188 18717.109375 7162.070312 18717.109375 7141.289062 18737.890625 Z M 7066.09375 18813.085938 " transform="matrix(0.1, 0, 0, -0.1, 0, 2100)"/>
<path fill="none" stroke-width="108.67" stroke-linecap="round" stroke-linejoin="round" stroke="rgb(0%, 0%, 0%)" stroke-opacity="1" stroke-miterlimit="10" d="M 12292.8125 9703.125 L 10741.484375 11254.492188 " transform="matrix(0.1, 0, 0, -0.1, 0, 2100)"/>
<path fill="none" stroke-width="108.67" stroke-linecap="round" stroke-linejoin="round" stroke="rgb(0%, 0%, 0%)" stroke-opacity="1" stroke-miterlimit="10" d="M 13167.695312 9590.15625 C 13188.515625 9610.9375 13188.515625 9644.648438 13167.695312 9665.429688 L 13092.382812 9740.703125 C 13071.601562 9761.484375 13037.890625 9761.484375 13017.109375 9740.703125 L 12941.914062 9665.429688 C 12921.09375 9644.648438 12921.09375 9610.9375 12941.914062 9590.15625 L 13017.109375 9514.882812 C 13037.890625 9494.101562 13071.601562 9494.101562 13092.382812 9514.882812 Z M 13167.695312 9590.15625 " transform="matrix(0.1, 0, 0, -0.1, 0, 2100)"/>
<path fill="none" stroke-width="108.67" stroke-linecap="round" stroke-linejoin="round" stroke="rgb(0%, 0%, 0%)" stroke-opacity="1" stroke-miterlimit="10" d="M 12480.898438 9590.15625 C 12501.71875 9610.9375 12501.71875 9644.648438 12480.898438 9665.429688 L 12405.585938 9740.703125 C 12384.882812 9761.484375 12351.210938 9761.484375 12330.390625 9740.703125 L 12255.117188 9665.429688 C 12234.296875 9644.648438 12234.296875 9610.9375 12255.117188 9590.15625 L 12330.390625 9514.882812 C 12351.210938 9494.101562 12384.882812 9494.101562 12405.585938 9514.882812 Z M 12480.898438 9590.15625 " transform="matrix(0.1, 0, 0, -0.1, 0, 2100)"/>
<path fill="none" stroke-width="108.67" stroke-linecap="round" stroke-linejoin="round" stroke="rgb(0%, 0%, 0%)" stroke-opacity="1" stroke-miterlimit="10" d="M 10533.515625 -456.601562 L 6844.53125 3188.828125 " transform="matrix(0.1, 0, 0, -0.1, 0, 2100)"/>
<path fill="none" stroke-width="108.67" stroke-linecap="round" stroke-linejoin="round" stroke="rgb(0%, 0%, 0%)" stroke-opacity="1" stroke-miterlimit="10" d="M 6410.195312 2979.882812 L 6410.195312 6144.882812 L 5313.085938 7242.03125 L 4396.992188 7242.03125 L 3653.554688 7985.507812 " transform="matrix(0.1, 0, 0, -0.1, 0, 2100)"/>
<path fill="none" stroke-width="108.67" stroke-linecap="round" stroke-linejoin="round" stroke="rgb(0%, 0%, 0%)" stroke-opacity="1" stroke-miterlimit="10" d="M 6844.53125 3188.828125 L 6844.53125 6579.21875 L 2922.851562 10500.898438 " transform="matrix(0.1, 0, 0, -0.1, 0, 2100)"/>
<path fill="none" stroke-width="108.67" stroke-linecap="round" stroke-linejoin="round" stroke="rgb(0%, 0%, 0%)" stroke-opacity="1" stroke-miterlimit="10" d="M 3464.6875 8022.226562 C 3443.90625 8042.96875 3443.90625 8076.679688 3464.6875 8097.421875 L 3539.882812 8172.65625 C 3560.625 8193.398438 3594.335938 8193.398438 3615.117188 8172.65625 L 3690.3125 8097.421875 C 3711.054688 8076.679688 3711.054688 8042.96875 3690.3125 8022.226562 L 3615.117188 7946.992188 C 3594.335938 7926.25 3560.625 7926.25 3539.882812 7946.992188 Z M 3464.6875 8022.226562 " transform="matrix(0.1, 0, 0, -0.1, 0, 2100)"/>
<path fill="none" stroke-width="108.67" stroke-linecap="round" stroke-linejoin="round" stroke="rgb(0%, 0%, 0%)" stroke-opacity="1" stroke-miterlimit="10" d="M 2734.804688 10538.515625 C 2714.0625 10559.296875 2714.0625 10593.007812 2734.804688 10613.710938 L 2810.039062 10688.90625 C 2830.78125 10709.6875 2864.492188 10709.6875 2885.234375 10688.90625 L 2960.46875 10613.710938 C 2981.210938 10593.007812 2981.210938 10559.296875 2960.46875 10538.515625 L 2885.234375 10463.28125 C 2864.492188 10442.617188 2830.78125 10442.617188 2810.039062 10463.28125 Z M 2734.804688 10538.515625 " transform="matrix(0.1, 0, 0, -0.1, 0, 2100)"/>
<path fill="none" stroke-width="108.67" stroke-linecap="round" stroke-linejoin="round" stroke="rgb(0%, 0%, 0%)" stroke-opacity="1" stroke-miterlimit="10" d="M 9849.609375 -459.492188 L 6410.195312 2979.882812 " transform="matrix(0.1, 0, 0, -0.1, 0, 2100)"/>
<path fill="none" stroke-width="108.67" stroke-linecap="round" stroke-linejoin="round" stroke="rgb(0%, 0%, 0%)" stroke-opacity="1" stroke-miterlimit="10" d="M 12093.28125 15312.617188 L 12093.28125 12905.78125 L 12955.703125 12034.609375 L 13995.507812 12034.609375 " transform="matrix(0.1, 0, 0, -0.1, 0, 2100)"/>
<path fill="none" stroke-width="108.67" stroke-linecap="round" stroke-linejoin="round" stroke="rgb(0%, 0%, 0%)" stroke-opacity="1" stroke-miterlimit="10" d="M 11658.984375 15103.59375 L 11658.984375 12697.382812 " transform="matrix(0.1, 0, 0, -0.1, 0, 2100)"/>
<path fill="none" stroke-width="108.67" stroke-linecap="round" stroke-linejoin="round" stroke="rgb(0%, 0%, 0%)" stroke-opacity="1" stroke-miterlimit="10" d="M 11658.984375 12697.382812 L 12756.09375 11600.3125 L 13672.1875 11600.3125 L 19885.585938 5386.875 " transform="matrix(0.1, 0, 0, -0.1, 0, 2100)"/>
<path fill="none" stroke-width="108.67" stroke-linecap="round" stroke-linejoin="round" stroke="rgb(0%, 0%, 0%)" stroke-opacity="1" stroke-miterlimit="10" d="M 14209.882812 11981.992188 C 14209.882812 11952.617188 14186.09375 11928.789062 14156.71875 11928.789062 L 14050.390625 11928.789062 C 14021.015625 11928.789062 13997.1875 11952.617188 13997.1875 11981.992188 L 13997.1875 12088.28125 C 13997.1875 12117.695312 14021.015625 12141.484375 14050.390625 12141.484375 L 14156.71875 12141.484375 C 14186.09375 12141.484375 14209.882812 12117.695312 14209.882812 12088.28125 Z M 14209.882812 11981.992188 " transform="matrix(0.1, 0, 0, -0.1, 0, 2100)"/>
<path fill="none" stroke-width="108.67" stroke-linecap="round" stroke-linejoin="round" stroke="rgb(0%, 0%, 0%)" stroke-opacity="1" stroke-miterlimit="10" d="M 20074.492188 5350.117188 C 20095.3125 5329.375 20095.3125 5295.664062 20074.492188 5274.921875 L 19999.296875 5199.6875 C 19978.59375 5178.945312 19944.882812 5178.945312 19924.101562 5199.6875 L 19848.90625 5274.921875 C 19828.085938 5295.664062 19828.085938 5329.375 19848.90625 5350.117188 L 19924.101562 5425.351562 C 19944.882812 5446.09375 19978.59375 5446.09375 19999.296875 5425.351562 Z M 20074.492188 5350.117188 " transform="matrix(0.1, 0, 0, -0.1, 0, 2100)"/>
<path fill="none" stroke-width="108.67" stroke-linecap="round" stroke-linejoin="round" stroke="rgb(0%, 0%, 0%)" stroke-opacity="1" stroke-miterlimit="10" d="M 9925.234375 19235.703125 L 10615.390625 18545.507812 L 10615.390625 16147.109375 L 11658.984375 15103.59375 " transform="matrix(0.1, 0, 0, -0.1, 0, 2100)"/>
<path fill="none" stroke-width="108.67" stroke-linecap="round" stroke-linejoin="round" stroke="rgb(0%, 0%, 0%)" stroke-opacity="1" stroke-miterlimit="10" d="M 9925.234375 19887.695312 L 11058.789062 18754.21875 L 11058.789062 16347.109375 L 12093.28125 15312.617188 " transform="matrix(0.1, 0, 0, -0.1, 0, 2100)"/>
<path fill="none" stroke-width="108.67" stroke-linecap="round" stroke-linejoin="round" stroke="rgb(0%, 0%, 0%)" stroke-opacity="1" stroke-miterlimit="10" d="M 9810.898438 19196.601562 C 9831.679688 19175.78125 9865.390625 19175.78125 9886.171875 19196.601562 L 9961.445312 19271.914062 C 9982.226562 19292.695312 9982.226562 19326.40625 9961.445312 19347.1875 L 9886.171875 19422.382812 C 9865.390625 19443.203125 9831.679688 19443.203125 9810.898438 19422.382812 L 9735.625 19347.1875 C 9714.84375 19326.40625 9714.84375 19292.695312 9735.625 19271.914062 Z M 9810.898438 19196.601562 " transform="matrix(0.1, 0, 0, -0.1, 0, 2100)"/>
<path fill="none" stroke-width="108.67" stroke-linecap="round" stroke-linejoin="round" stroke="rgb(0%, 0%, 0%)" stroke-opacity="1" stroke-miterlimit="10" d="M 9810.898438 19848.59375 C 9831.679688 19827.8125 9865.390625 19827.8125 9886.171875 19848.59375 L 9961.445312 19923.90625 C 9982.226562 19944.6875 9982.226562 19978.398438 9961.445312 19999.21875 L 9886.171875 20074.414062 C 9865.390625 20095.195312 9831.679688 20095.195312 9810.898438 20074.414062 L 9735.625 19999.21875 C 9714.84375 19978.398438 9714.84375 19944.6875 9735.625 19923.90625 Z M 9810.898438 19848.59375 " transform="matrix(0.1, 0, 0, -0.1, 0, 2100)"/>
</svg>
